<?xml version="1.0" encoding="UTF-8" standalone="no"?>
<svg width="26px" height="26px" viewBox="0 0 26 26" version="1.1" xmlns="http://www.w3.org/2000/svg" xmlns:xlink="http://www.w3.org/1999/xlink">
    <!-- Generator: Sketch 44.1 (41455) - http://www.bohemiancoding.com/sketch -->
    <title>group_10_slice</title>
    <desc>Created with Sketch.</desc>
    <defs></defs>
    <g id="设计图" stroke="none" stroke-width="1" fill="none" fill-rule="evenodd">
        <g id="Artboard">
            <g id="Group-10">
                <rect id="Rectangle-3" fill="#9496AB" opacity="0" x="0" y="0" width="25.037037" height="26"></rect>
                <g id="任务" transform="translate(14.444444, 12.500000) rotate(-45.000000) translate(-14.444444, -12.500000) translate(7.703704, 3.000000)" fill-rule="nonzero" fill="#2D8DFF">
                    <path d="M6.46270985,2.11696998 L6.46270985,1.39051514 C6.46270985,1.00024224 6.15577602,0.670730387 5.77713686,0.670730387 L0.994172991,0.670730387 C0.614015039,0.670730387 0.310609719,0.991819432 0.310609719,1.38791851 L0.310609719,15.1329965 L1.67673908,15.1329965 L1.67673908,14.4542871 C1.67716863,14.4457831 1.67749591,12.2616419 1.67772092,7.90186342 L5.09555262,7.90186342 L5.09555262,8.62831826 C5.09555262,9.01859116 5.40084492,9.34810301 5.77744369,9.34810301 L10.5657617,9.34810301 C10.9425599,9.34810301 11.2476527,9.02584548 11.2476527,8.62831826 L11.2476527,2.83675473 C11.2476374,2.44648183 10.9423451,2.11696998 10.5657617,2.11696998 L6.46270985,2.11696998 Z" id="Shape" opacity="0.5"></path>
                    <path d="M12.3030042,5.44928611 L8.19992169,5.44928611 L8.19992169,4.72283128 C8.19992169,4.33255837 7.89298786,4.00304652 7.5143487,4.00304652 L2.73138483,4.00304652 C2.35122688,4.00304652 2.04782156,4.32413557 2.04782156,4.72023465 L2.04782156,18.4653126 L3.41395092,18.4653126 L3.41395092,17.7866032 C3.41459525,17.7738473 3.41493276,17.7610427 3.41493276,17.7481245 L3.41493276,11.2341796 L6.83276446,11.2341796 L6.83276446,11.9606344 C6.83276446,12.3509073 7.13805676,12.6804191 7.51465553,12.6804191 L12.3029735,12.6804191 C12.6797717,12.6804191 12.9848646,12.3581616 12.9848646,11.9606344 L12.9848646,6.16907087 C12.9848492,5.77879796 12.6795569,5.44928611 12.3029735,5.44928611 L12.3030042,5.44928611 Z" id="Shape"></path>
                </g>
            </g>
        </g>
    </g>
</svg>