<?xml version="1.0" encoding="UTF-8" standalone="no"?>
<svg width="26px" height="26px" viewBox="0 0 26 26" version="1.1" xmlns="http://www.w3.org/2000/svg" xmlns:xlink="http://www.w3.org/1999/xlink">
    <!-- Generator: Sketch 44.1 (41455) - http://www.bohemiancoding.com/sketch -->
    <title>group_10_slice</title>
    <desc>Created with Sketch.</desc>
    <defs></defs>
    <g id="设计图" stroke="none" stroke-width="1" fill="none" fill-rule="evenodd">
        <g id="Artboard" fill-rule="nonzero" fill="#F53F61">
            <g id="Group-10">
                <g id="设置" transform="translate(1.000000, 3.000000)">
                    <path d="M17.5000389,7.70159554 L17.5000389,7.70159554 C18.5952765,7.70378214 19.4823929,8.5914903 19.4838491,9.68672911 L19.4838491,10.3484403 C19.4838491,11.4429106 18.5931858,12.3335739 17.5000389,12.3335739 L17.0778672,12.3335739 C16.9666997,12.6750169 16.8264169,13.0071959 16.663636,13.3301109 L16.9640529,13.6305278 C17.736982,14.4070786 17.736982,15.6622793 16.9640529,16.4388301 L16.4955613,16.9073216 C15.742534,17.6563787 14.4363161,17.6550553 13.6885825,16.9073216 L13.3868422,16.6055813 C13.0655993,16.7676335 12.7329818,16.9060767 12.3916285,17.0198125 L12.3916285,17.4419843 C12.3916285,18.5364546 11.5009653,19.4271178 10.4078184,19.4271178 L9.7461072,19.4271178 C8.65163689,19.4271178 7.76097363,18.5364546 7.76097363,17.4419843 L7.76097363,17.0198125 C7.41953065,16.9073216 7.08735164,16.7683623 6.76443657,16.6055813 L6.46401969,16.9059982 C5.71628605,17.6550553 4.40742131,17.6563787 3.65704082,16.9059982 L3.1885493,16.4375067 C2.41577315,15.6614091 2.41577315,14.4066254 3.1885493,13.6305278 L3.48896618,13.3301109 C3.32618523,13.0071959 3.18722588,12.6750169 3.07473498,12.3335739 L2.65256324,12.3335739 C1.55809293,12.3335739 0.667429663,11.4429106 0.667429663,10.3484403 L0.667429663,9.68672911 C0.667429663,8.59358223 1.55809293,7.70159554 2.65256324,7.70159554 L3.0760584,7.70159554 C3.18970878,7.3606388 3.32815549,7.02845514 3.4902896,6.70770533 L3.18987272,6.40728845 C2.41549009,5.63133831 2.41549009,4.37493631 3.18987272,3.59898616 L3.65836425,3.13049464 C4.40609789,2.38276099 5.7136392,2.38143757 6.46534312,3.13049464 L6.76443657,3.43091152 C7.08735164,3.26813056 7.41953065,3.12917121 7.76097363,3.01668031 L7.76097363,2.59450857 C7.76097363,1.50003826 8.65163689,0.609375 9.7461072,0.609375 L10.4078184,0.609375 C11.5009653,0.609375 12.3916285,1.50003826 12.3916285,2.59450857 L12.3916285,3.01668031 C12.7337487,3.12950891 13.0668724,3.26797866 13.3881656,3.43091152 L13.6872591,3.13181806 C14.438963,2.38143757 15.7438574,2.38276099 16.4955613,3.13181806 L16.9653763,3.60030958 C17.3380238,3.97195798 17.5471215,4.47684067 17.5463587,5.00313731 C17.5480632,5.53000864 17.3388486,6.03565049 16.9653763,6.40728845 L16.6649594,6.70638191 C16.8272395,7.02751997 16.9656898,7.36015442 17.0791906,7.70159554 L17.5000389,7.70159554 Z M10.0864749,6.26080214 C8.00674133,6.26336971 6.32142438,7.94868667 6.3188568,10.0284202 C6.32142438,12.1081538 8.00674133,13.7934707 10.0864749,13.7960383 C12.1666634,13.7941126 13.8526892,12.108608 13.855258,10.0284202 C13.8520488,7.94849823 12.1663978,6.26336826 10.0864749,6.26080214 Z" id="Combined-Shape" opacity="0.5"></path>
                    <path d="M20.3257525,8.64350007 L20.3257525,8.64350007 C21.4209901,8.64568666 22.3081065,9.53339482 22.3095627,10.6286336 L22.3095627,11.2903448 C22.3095627,12.3848151 21.4188994,13.2754784 20.3257525,13.2754784 L19.9035808,13.2754784 C19.7924133,13.6169214 19.6521305,13.9491004 19.4893496,14.2720155 L19.7897664,14.5724323 C20.5626956,15.3489831 20.5626956,16.6041839 19.7897664,17.3807346 L19.3212749,17.8492262 C18.5682476,18.5982832 17.2620297,18.5969598 16.514296,17.8492262 L16.2125557,17.5474858 C15.8913129,17.709538 15.5586954,17.8479812 15.2173421,17.9617171 L15.2173421,18.3838888 C15.2173421,19.4783591 14.3266788,20.3690224 13.233532,20.3690224 L12.5718208,20.3690224 C11.4773505,20.3690224 10.5866872,19.4783591 10.5866872,18.3838888 L10.5866872,17.9617171 C10.2452442,17.8492262 9.91306521,17.7102668 9.59015014,17.5474858 L9.28973326,17.8479027 C8.54199962,18.5969598 7.23313488,18.5982832 6.48275439,17.8479027 L6.01426287,17.3794112 C5.24148671,16.6033136 5.24148671,15.3485299 6.01426287,14.5724323 L6.31467975,14.2720155 C6.1518988,13.9491004 6.01293945,13.6169214 5.90044854,13.2754784 L5.4782768,13.2754784 C4.3838065,13.2754784 3.49314323,12.3848151 3.49314323,11.2903448 L3.49314323,10.6286336 C3.49314323,9.53548675 4.3838065,8.64350007 5.4782768,8.64350007 L5.90177197,8.64350007 C6.01542235,8.30254332 6.15386906,7.97035967 6.31600317,7.64960986 L6.01558629,7.34919298 C5.24120366,6.57324283 5.24120366,5.31684083 6.01558629,4.54089068 L6.48407781,4.07239916 C7.23181146,3.32466551 8.53935277,3.32334209 9.29105669,4.07239916 L9.59015014,4.37281604 C9.91306521,4.21003509 10.2452442,4.07107574 10.5866872,3.95858484 L10.5866872,3.5364131 C10.5866872,2.44194279 11.4773505,1.55127952 12.5718208,1.55127952 L13.233532,1.55127952 C14.3266788,1.55127952 15.2173421,2.44194279 15.2173421,3.5364131 L15.2173421,3.95858484 C15.5594622,4.07141343 15.8925859,4.20988318 16.2138792,4.37281604 L16.5129726,4.07372258 C17.2646765,3.32334209 18.569571,3.32466551 19.3212749,4.07372258 L19.7910899,4.54221411 C20.1637374,4.9138625 20.3728351,5.41874519 20.3720723,5.94504183 C20.3737768,6.47191316 20.1645621,6.97755502 19.7910899,7.34919298 L19.490673,7.64828643 C19.6529531,7.9694245 19.7914033,8.30205894 19.9049042,8.64350007 L20.3257525,8.64350007 Z M12.9121885,7.20270666 C10.8324549,7.20527424 9.14713795,8.89059119 9.14457037,10.9703248 C9.14713795,13.0500583 10.8324549,14.7353753 12.9121885,14.7379428 C14.992377,14.7360171 16.6784027,13.0505126 16.6809716,10.9703248 C16.6777624,8.89040275 14.9921114,7.20527279 12.9121885,7.20270666 Z" id="Combined-Shape"></path>
                </g>
            </g>
        </g>
    </g>
</svg>