<?xml version="1.0" encoding="UTF-8" standalone="no"?>
<svg width="70px" height="46px" viewBox="0 0 70 46" version="1.1" xmlns="http://www.w3.org/2000/svg" xmlns:xlink="http://www.w3.org/1999/xlink">
    <!-- Generator: Sketch 44.1 (41455) - http://www.bohemiancoding.com/sketch -->
    <title>group_slice</title>
    <desc>Created with Sketch.</desc>
    <defs>
        <linearGradient x1="5.52580758%" y1="11.2686821%" x2="76.8850948%" y2="100%" id="linearGradient-1">
            <stop stop-color="#FBDA61" offset="0%"></stop>
            <stop stop-color="#F76B1C" offset="100%"></stop>
        </linearGradient>
        <linearGradient x1="50%" y1="0%" x2="50%" y2="100%" id="linearGradient-2">
            <stop stop-color="#59C1FF" offset="0%"></stop>
            <stop stop-color="#2D8DFF" offset="100%"></stop>
        </linearGradient>
        <linearGradient x1="50%" y1="0%" x2="50%" y2="100%" id="linearGradient-3">
            <stop stop-color="#FBDA61" offset="0%"></stop>
            <stop stop-color="#F76B1C" offset="100%"></stop>
        </linearGradient>
    </defs>
    <g id="设计图" stroke="none" stroke-width="1" fill="none" fill-rule="evenodd">
        <g id="Artboard">
            <g id="Group">
                <rect id="Rectangle-6" stroke="url(#linearGradient-1)" stroke-width="0.5" x="0.25" y="0.25" width="69.5" height="45.5" rx="22.75"></rect>
                <g id="数学" transform="translate(22.000000, 10.000000)">
                    <path d="M25.0526221,26 L17.9473478,26 C17.426302,26 17,25.5666504 17,25.037028 L17,0.962972019 C17,0.433319071 17.426302,0 17.9473478,0 L25.0526221,0 C25.573698,0 26,0.433349633 26,0.962972019 L26,25.037028 C26,25.5666809 25.5736679,26 25.0526221,26 Z M19,24 L24,24 L24,2 L19,2 L19,24 Z" id="Shape" fill="url(#linearGradient-2)" fill-rule="nonzero"></path>
                    <path d="M15.0638245,26 L0.941494634,26 C0.423654657,26 0,25.5668459 0,25.0374625 L0,0.97426834 C0,0.541114227 0.282436438,0.15610532 0.682574645,0.0358034023 C1.08271285,-0.0844985158 1.52991384,0.107990663 1.74174117,0.468926966 L15.8640412,24.5321516 C16.0288057,24.8209007 16.0523221,25.2059096 15.8875576,25.4946586 C15.7227931,25.7834077 15.3932938,26 15.0637647,26 L15.0638245,26 Z M13.6333008,24 L1.63330078,4 L1.63330078,24 L13.6333008,24 Z" id="Shape" fill="url(#linearGradient-3)" fill-rule="nonzero"></path>
                    <path d="M21.5714148,3.44580078 C21.2476211,3.44580078 21,3.22913623 21,2.94582194 C21,2.66250765 21.2476211,2.44580078 21.5714148,2.44580078 L24.4285852,2.44580078 C24.7523789,2.44580078 25,2.66246533 25,2.94580078 C25,3.22913623 24.7523789,3.44577962 24.4285852,3.44577962 L21.5714148,3.44580078 Z M23.1333233,5.44580078 C22.8311143,5.44580078 22.6,5.22913623 22.6,4.94577962 C22.6,4.66242301 22.8311143,4.44580078 23.1333233,4.44580078 L24.4666767,4.44580078 C24.7688857,4.44580078 25,4.66246533 25,4.94577962 C25,5.22909391 24.7688857,5.44577962 24.4666767,5.44577962 L23.1333233,5.44580078 Z M24.4285852,8.44580078 L21.5714148,8.44580078 C21.2476211,8.44580078 21,8.22913165 21,7.94581136 C21,7.66249108 21.2476211,7.44580078 21.5714148,7.44580078 L24.4285852,7.44580078 C24.7523789,7.44580078 25,7.66246992 25,7.9457902 C25,8.22911049 24.7523789,8.44580078 24.4285852,8.44580078 Z M23.1333233,10.4458008 C22.8311143,10.4458008 22.6,10.2291362 22.6,9.94580078 C22.6,9.66246533 22.8311143,9.44580078 23.1333233,9.44580078 L24.4666767,9.44580078 C24.7688857,9.44580078 25,9.66246533 25,9.94577962 C25,10.2290939 24.7688857,10.4458008 24.4666767,10.4458008 L23.1333233,10.4458008 Z M21.5714148,13.4458008 C21.2476211,13.4458008 21,13.2291316 21,12.9457902 C21,12.6624488 21.2476211,12.4458008 21.5714148,12.4458008 L24.4285852,12.4458008 C24.7523789,12.4458008 25,12.6624699 25,12.9457902 C25,13.2291105 24.7523789,13.4457796 24.4285852,13.4457796 L21.5714148,13.4458008 Z M23.1333233,15.4458008 C22.8311143,15.4458008 22.6,15.2291362 22.6,14.9458219 C22.6,14.6625076 22.8311143,14.4458008 23.1333233,14.4458008 L24.4666767,14.4458008 C24.7688857,14.4458008 25,14.6624653 25,14.9458008 C25,15.2291362 24.7688857,15.4458008 24.4666767,15.4458008 L23.1333233,15.4458008 Z M21.5714148,18.4458008 C21.2476211,18.4458008 21,18.2291362 21,17.9457796 C21,17.662423 21.2476211,17.4458008 21.5714148,17.4458008 L24.4285852,17.4458008 C24.7523789,17.4458008 25,17.6624653 25,17.9457796 C25,18.2290939 24.7523789,18.4457796 24.4285852,18.4457796 L21.5714148,18.4458008 Z M23.1333233,20.4458008 C22.8311143,20.4458008 22.6,20.2291316 22.6,19.9458114 C22.6,19.6624911 22.8311143,19.4458008 23.1333233,19.4458008 L24.4666767,19.4458008 C24.7688857,19.4458008 25,19.6624699 25,19.9457902 C25,20.2291105 24.7688857,20.4458008 24.4666767,20.4458008 L23.1333233,20.4458008 Z M21.5714148,23.4458008 C21.2476211,23.4458008 21,23.2291316 21,22.9457902 C21,22.6624488 21.2476211,22.4458008 21.5714148,22.4458008 L24.4285852,22.4458008 C24.7523789,22.4458008 25,22.6624699 25,22.9457902 C25,23.2291105 24.7523789,23.4457796 24.4285852,23.4457796 L21.5714148,23.4458008 Z" id="Combined-Shape" fill="#2D8DFF"></path>
                    <polygon id="Shape" fill="#F6A623" fill-rule="nonzero" opacity="0.5" points="9 22 4 22 4 14"></polygon>
                </g>
            </g>
        </g>
    </g>
</svg>