<?xml version="1.0" encoding="UTF-8" standalone="no"?>
<svg width="70px" height="46px" viewBox="0 0 70 46" version="1.1" xmlns="http://www.w3.org/2000/svg" xmlns:xlink="http://www.w3.org/1999/xlink">
    <!-- Generator: Sketch 44.1 (41455) - http://www.bohemiancoding.com/sketch -->
    <title>group_copy_slice</title>
    <desc>Created with Sketch.</desc>
    <defs>
        <linearGradient x1="4.79771205%" y1="10.0288723%" x2="95.0767299%" y2="84.822945%" id="linearGradient-1">
            <stop stop-color="#B1BCFF" offset="0%"></stop>
            <stop stop-color="#4F5BC4" offset="100%"></stop>
        </linearGradient>
        <linearGradient x1="13.6791468%" y1="11.4611617%" x2="100%" y2="86.6312271%" id="linearGradient-2">
            <stop stop-color="#A6B2FA" offset="0%"></stop>
            <stop stop-color="#4F5BC4" offset="100%"></stop>
        </linearGradient>
        <linearGradient x1="95.5237361%" y1="100%" x2="0.25781251%" y2="0%" id="linearGradient-3">
            <stop stop-color="#5882F8" offset="0%"></stop>
            <stop stop-color="#53A0FE" offset="47.5247532%"></stop>
            <stop stop-color="#B4ED50" offset="100%"></stop>
        </linearGradient>
        <linearGradient x1="10.0059915%" y1="11.0316127%" x2="100%" y2="95.4734551%" id="linearGradient-4">
            <stop stop-color="#FBDA61" offset="0%"></stop>
            <stop stop-color="#F76B1C" offset="100%"></stop>
        </linearGradient>
    </defs>
    <g id="设计图" stroke="none" stroke-width="1" fill="none" fill-rule="evenodd">
        <g id="Artboard">
            <g id="Group-Copy">
                <rect id="Rectangle-6" stroke="url(#linearGradient-1)" stroke-width="0.5" x="0.25" y="0.25" width="69.5" height="45.5" rx="22.75"></rect>
                <g id="英语" transform="translate(19.000000, 7.000000)">
                    <path d="M21.1524525,15.4649327 C22.6096572,15.4649327 23.7945559,14.2721784 23.7945559,12.7970274 L23.7945559,2.66790525 C23.7945559,1.19647003 22.613337,0 21.1524525,0 L11.1176111,0 C9.66040638,0 8.47550762,1.19275428 8.47550762,2.66790525 L8.47550762,12.7970274 C8.47550762,14.2684626 9.65672656,15.4649327 11.1176111,15.4649327 L21.1524525,15.4649327 Z M10.0615056,12.8007432 L10.0615056,2.66790525 C10.0615056,2.08081747 10.5362011,1.60148631 11.1176111,1.60148631 L21.1524525,1.60148631 C21.7338624,1.60148631 22.2085579,2.08081747 22.2085579,2.66790525 L22.2085579,12.7970274 C22.2085579,13.3841152 21.7338624,13.8634463 21.1524525,13.8634463 L11.1176111,13.8634463 C10.5362011,13.8671621 10.0615057,13.3878309 10.0615056,12.8007432 Z" id="Shape" fill="url(#linearGradient-2)" fill-rule="nonzero"></path>
                    <path d="M0.0303440464,19.1992568 C0.0303440464,17.7241059 1.21156299,16.5313516 2.66876769,16.5313516 L12.7036091,16.5313516 C14.1644936,16.5313516 15.3457126,17.7278216 15.3457126,19.1992568 L15.3457126,29.3320947 C15.3457126,30.8072457 14.1608138,32 12.7036091,32 L2.6724475,32 C1.21156299,32 0.0303440464,30.80353 0.0303440464,29.3320947 L0.0303440464,19.1992568 Z M13.7597145,19.1992568 L13.7597145,19.1992568 C13.7597145,18.6084533 13.285019,18.1328379 12.6999293,18.1328379 L2.66876769,18.1328379 C2.08735774,18.1328379 1.61266228,18.6121691 1.61266228,19.1992568 L1.61266228,29.3320947 C1.61266228,29.9191825 2.08735774,30.3985137 2.66876769,30.3985137 L12.7036091,30.3985137 C13.2850191,30.3985137 13.7597145,29.9191825 13.7597145,29.3320947 L13.7597145,19.1992568 Z" id="Combined-Shape" fill="url(#linearGradient-3)"></path>
                    <path d="M31.978453,19.1992568 L31.9821328,19.1992568 L31.9821328,29.3320947 C31.9821328,30.8072457 30.797234,32 29.3400293,32 L19.3051879,32 C17.8479832,32 16.6667643,30.80353 16.6667643,29.3320947 L16.6667643,19.1992568 C16.6667643,17.7241059 17.8479832,16.5313516 19.3051879,16.5313516 L29.3363495,16.5313516 C30.797234,16.5313516 31.978453,17.7278216 31.978453,19.1992568 Z M30.392455,29.328379 L30.3961348,29.328379 L30.3961348,19.1992568 C30.3961347,18.6121691 29.9214393,18.1328379 29.3400293,18.1328379 L19.3051879,18.1328379 C18.723778,18.1328379 18.2490825,18.6121691 18.2490825,19.1992568 L18.2490825,29.328379 C18.2490825,29.9154668 18.723778,30.394798 19.3051879,30.394798 L29.3363495,30.394798 C29.9177595,30.3947979 30.392455,29.9154668 30.392455,29.328379 Z" id="Combined-Shape" fill="url(#linearGradient-4)"></path>
                    <path d="M5.79292624,29.2577798 L7.80210241,29.2577798 C9.50953417,29.2577798 10.9005023,27.8532281 10.9005023,26.1291222 C10.9005023,24.9326521 10.2307769,23.8922434 9.25194748,23.3683233 C9.56473133,22.9410126 9.75608142,22.4170924 9.75608142,21.8485834 C9.75608142,20.4291686 8.61166056,19.269856 7.20229342,19.269856 L5.79292624,19.269856 C5.20415666,19.269856 4.71106216,19.663725 4.54179092,20.1987924 C4.49763321,20.2991175 4.47187454,20.4068741 4.47187451,20.5220622 L4.47187451,27.9721319 C4.47187451,28.0352996 4.47923414,28.0984672 4.49395339,28.1579192 C4.60802751,28.7784487 5.14527972,29.2577798 5.79292624,29.2577798 L5.79292624,29.2577798 Z M9.31450426,26.1291222 C9.31450426,26.9725964 8.63741926,27.6562935 7.80210241,27.6562935 L6.05787256,27.6562935 L6.05787256,24.6019508 L7.80210241,24.6019508 C8.63741923,24.6019508 9.31450423,25.2856479 9.31450426,26.1291222 L9.31450426,26.1291222 Z M8.1700834,21.8448676 C8.1700834,22.3836507 7.73586584,22.8221087 7.20229342,22.8221087 L6.05787256,22.8221087 L6.05787256,20.8676266 L7.20229342,20.8676266 C7.73586584,20.8676266 8.1700834,21.3060845 8.1700834,21.8448676 Z" id="Shape" fill="#497EE8" fill-rule="nonzero"></path>
                    <path d="M27.0916655,26.5712959 C26.5065758,27.1286577 25.7448551,27.4333488 24.9389768,27.4333488 C23.2094662,27.4333488 21.800099,26.0102183 21.800099,24.2638179 C21.800099,22.5174176 23.2094662,21.0942871 24.9389768,21.094287 C25.708057,21.094287 26.4476988,21.3766837 27.0217491,21.8931723 C27.3492522,22.1867162 27.8497063,22.1569902 28.1404113,21.8262889 C28.4311163,21.4955876 28.4016778,20.9902462 28.0741748,20.6967023 C27.2094195,19.9201115 26.0981169,19.4965165 24.9389768,19.4965165 C22.3336714,19.4965165 20.2177808,21.6367859 20.2177808,24.2675337 C20.2177808,26.8982815 22.3373512,29.0385509 24.9389768,29.0385508 C26.1459544,29.0385508 27.2977349,28.5777984 28.1772094,27.7417557 C28.4973529,27.4370646 28.5120721,26.9317232 28.2103277,26.6121691 C27.9122631,26.2814677 27.4081292,26.2666047 27.0916655,26.5712959 L27.0916655,26.5712959 Z" id="Path" fill="#F87E28"></path>
                    <path d="M11.8498932,12.4403158 C11.4598334,12.2433813 11.3016016,11.7640502 11.4966315,11.3664654 L15.4303482,3.39247562 C15.434028,3.38504412 15.4377078,3.38132837 15.4413876,3.37389687 C15.4561069,3.34788666 15.4708261,3.32559219 15.4855453,3.30329772 C15.5002646,3.28100325 15.5149838,3.25870878 15.5297031,3.24013006 C15.5444223,3.22155134 15.5591415,3.20668834 15.5775406,3.18810962 C15.5996195,3.16581516 15.6180185,3.14723641 15.6400974,3.12865769 C15.6548166,3.11379469 15.6732157,3.10264747 15.6916147,3.09150022 C15.7173733,3.0729215 15.743132,3.05434275 15.7725705,3.03947978 C15.7762503,3.03576406 15.7799301,3.03204831 15.7872897,3.02833256 C15.802009,3.02461681 15.8167282,3.02090106 15.8314475,3.01346956 C15.8608859,2.99860659 15.8866446,2.98745937 15.9160831,2.98002787 C15.9381619,2.97631212 15.9602408,2.96888062 15.9859995,2.96516487 L16.0632755,2.95401766 C16.0890342,2.95030191 16.1147928,2.95030191 16.1405515,2.95030191 C16.1663102,2.95030191 16.1920688,2.95030191 16.2178275,2.95401766 C16.2435862,2.95401762 16.2693448,2.96144912 16.2951035,2.96516487 C16.3208622,2.97259637 16.3466208,2.97631212 16.3686997,2.98374362 C16.3944584,2.99117509 16.4238969,3.00232231 16.4496555,3.01346956 C16.4643747,3.02090106 16.479094,3.02461681 16.4938132,3.03204831 C16.497493,3.03576403 16.5011728,3.03947978 16.5085325,3.04319553 C16.5342911,3.0580585 16.5600498,3.0729215 16.5858085,3.09150022 C16.6005277,3.10264747 16.6189268,3.11379472 16.6373258,3.12865769 C16.6594047,3.14723644 16.6778037,3.16953091 16.6962028,3.18810962 C16.7146018,3.20297259 16.7330009,3.22155134 16.7477201,3.24013006 C16.7624393,3.25870878 16.7734788,3.28100325 16.788198,3.29958197 C16.8029173,3.32187647 16.8176365,3.34417094 16.8323557,3.37018116 C16.8360355,3.37761262 16.8397153,3.38132837 16.8433952,3.38875987 L20.7771119,11.3664654 C20.9721418,11.7640502 20.8102302,12.2433813 20.4201703,12.4403158 C20.3060962,12.4997677 20.1846625,12.525778 20.0669086,12.525778 C19.7762036,12.525778 19.496538,12.3622852 19.3567053,12.0798885 L18.6391424,10.6233163 L13.6309212,10.6233163 L12.9133583,12.0798885 C12.7735255,12.3622852 12.49386,12.525778 12.203155,12.525778 C12.0817213,12.525778 11.9639674,12.496052 11.8498932,12.4403158 Z M16.1368717,5.5401765 L16.1368717,5.5401765 L14.4220803,9.02183 L17.8516631,9.02183 L16.1368717,5.5401765 Z" id="Combined-Shape" fill="#5561C9"></path>
                </g>
            </g>
        </g>
    </g>
</svg>