<?xml version="1.0" encoding="UTF-8" standalone="no"?>
<svg width="8px" height="12px" viewBox="0 0 8 12" version="1.1" xmlns="http://www.w3.org/2000/svg" xmlns:xlink="http://www.w3.org/1999/xlink">
    <!-- Generator: Sketch 44.1 (41455) - http://www.bohemiancoding.com/sketch -->
    <title>group_19_slice</title>
    <desc>Created with Sketch.</desc>
    <defs></defs>
    <g id="设计图" stroke="none" stroke-width="1" fill="none" fill-rule="evenodd">
        <g id="Artboard" transform="translate(-327.000000, -7.000000)" fill="#9496AB">
            <g id="Group-19" transform="translate(331.000000, 13.000000) scale(1, -1) rotate(-90.000000) translate(-331.000000, -13.000000) translate(325.000000, 9.000000)">
                <rect id="Rectangle-2" transform="translate(4.000000, 4.000000) scale(-1, 1) rotate(45.000000) translate(-4.000000, -4.000000) " x="3" y="2.27373675e-13" width="2" height="8" rx="1"></rect>
                <path d="M8.24264069,1.84741111e-13 L8.24264069,1.84741111e-13 L8.24264069,1.84741111e-13 C8.79492544,1.40492191e-13 9.24264069,0.44771525 9.24264069,1 L9.24264069,7 L9.24264069,7 C9.24264069,7.55228475 8.79492544,8 8.24264069,8 L8.24264069,8 L8.24264069,8 C7.69035594,8 7.24264069,7.55228475 7.24264069,7 L7.24264069,1 L7.24264069,1 C7.24264069,0.44771525 7.69035594,2.28990031e-13 8.24264069,1.84741111e-13 Z" id="Rectangle-2" transform="translate(8.242641, 4.000000) rotate(45.000000) translate(-8.242641, -4.000000) "></path>
            </g>
        </g>
    </g>
</svg>