<?xml version="1.0" encoding="UTF-8" standalone="no"?>
<svg width="10px" height="15px" viewBox="0 0 10 15" version="1.1" xmlns="http://www.w3.org/2000/svg" xmlns:xlink="http://www.w3.org/1999/xlink">
    <!-- Generator: Sketch 44.1 (41455) - http://www.bohemiancoding.com/sketch -->
    <title>group_19_slice</title>
    <desc>Created with Sketch.</desc>
    <defs></defs>
    <g id="设计图" stroke="none" stroke-width="1" fill="none" fill-rule="evenodd">
        <g id="Artboard" transform="translate(-316.000000, -88.000000)" fill="#FFFFFF">
            <g id="Group-19" transform="translate(321.000000, 95.500000) scale(1, -1) rotate(-90.000000) translate(-321.000000, -95.500000) translate(313.500000, 90.500000)">
                <path d="M10.6599557,7.75171121e-05 L10.6599557,7.75171121e-05 L10.6599557,7.75171121e-05 C11.2122254,7.7517112e-05 11.6599284,0.447780551 11.6599284,1.00005023 L11.6599284,9.00003659 L11.6599284,9.00003659 C11.6599284,9.55230627 11.2122254,10.0000093 10.6599557,10.0000093 L10.6599557,10.0000093 L10.6599557,10.0000093 C10.107686,10.0000093 9.65998296,9.55230627 9.65998296,9.00003659 L9.65998296,1.00005023 L9.65998296,1.00005023 C9.65998296,0.447780551 10.107686,7.75171123e-05 10.6599557,7.75171121e-05 Z" id="Rectangle-2" transform="translate(10.659956, 5.000043) rotate(45.000000) translate(-10.659956, -5.000043) "></path>
                <path d="M5.00004047,0 L5.00004047,0 L5.00004047,0 C5.55229954,-1.7766411e-13 5.99999398,0.447694436 5.99999398,0.99995351 L5.99999398,8.99995953 L5.99999398,8.99995953 C5.99999398,9.5522186 5.55229954,9.99991304 5.00004047,9.99991304 L5.00004047,9.99991304 L5.00004047,9.99991304 C4.4477814,9.99991304 4.00008696,9.5522186 4.00008696,8.99995953 L4.00008696,0.99995351 L4.00008696,0.99995351 C4.00008696,0.447694436 4.4477814,1.7766411e-13 5.00004047,0 Z" id="Rectangle-2" transform="translate(5.000000, 5.000000) scale(1, -1) rotate(45.000000) translate(-5.000000, -5.000000) "></path>
            </g>
        </g>
    </g>
</svg>