<?xml version="1.0" encoding="UTF-8" standalone="no"?>
<svg width="60px" height="60px" viewBox="0 0 60 60" version="1.1" xmlns="http://www.w3.org/2000/svg" xmlns:xlink="http://www.w3.org/1999/xlink">
    <!-- Generator: Sketch 44.1 (41455) - http://www.bohemiancoding.com/sketch -->
    <title>group_13_slice</title>
    <desc>Created with Sketch.</desc>
    <defs>
        <linearGradient x1="84.3937316%" y1="100%" x2="23.945619%" y2="0%" id="linearGradient-1">
            <stop stop-color="#3023AE" offset="0%"></stop>
            <stop stop-color="#C96DD8" offset="100%"></stop>
        </linearGradient>
    </defs>
    <g id="设计图" stroke="none" stroke-width="1" fill="none" fill-rule="evenodd">
        <g id="Artboard" transform="translate(-20.000000, 0.000000)">
            <g id="Group-13" transform="translate(20.000000, 0.000000)">
                <circle id="Oval" fill="#FFFFFF" cx="30" cy="30" r="30"></circle>
                <g id="clip" transform="translate(16.000000, 14.000000)">
                    <rect id="Rectangle-path" fill="#E8655A" x="0.64362069" y="24.7888433" width="28.2529885" height="3.59277778"></rect>
                    <polygon id="Shape" fill="#FFBA57" points="2.57390805 24.7890159 26.9663218 24.7890159 28.8966092 13.8794345 0.64362069 13.8794345"></polygon>
                    <path d="M28.8966092,24.2021687 L27.6654598,24.2021687 L29.4738506,13.9817976 C29.5040805,13.8109048 29.4571839,13.6353512 29.3458046,13.502377 C29.2344253,13.3694028 29.0699425,13.2925873 28.8966092,13.2925873 L19.3047126,13.2925873 L18.4954598,10.4317143 C17.973046,8.58503571 18.3185057,6.63444048 19.4431034,5.08000595 L19.5167241,4.97821825 C20.2066667,4.02449802 20.3031609,2.78049008 19.7684483,1.73159921 C19.2337356,0.682708333 18.1708046,0.0311289683 16.9945977,0.0311289683 L12.5456322,0.0311289683 C11.3694253,0.0311289683 10.3065517,0.682708333 9.77178161,1.73159921 C9.23701149,2.78049008 9.33350575,4.02449802 10.0235057,4.97821825 L10.0971264,5.08000595 C11.2217241,6.63444048 11.5671264,8.58503571 11.0447701,10.4317143 L10.2355172,13.2925873 L0.64362069,13.2925873 C0.470229885,13.2925873 0.305804598,13.3694028 0.194425287,13.502377 C0.083045977,13.6353512 0.0362068966,13.8109048 0.0663793103,13.9817976 L1.87477011,24.2021687 L0.64362069,24.2021687 C0.319885057,24.2021687 0.0574712644,24.4648948 0.0574712644,24.7890159 L0.0574712644,28.3820238 C0.0574712644,28.7061448 0.319885057,28.968871 0.64362069,28.968871 L28.8966092,28.968871 C29.2203448,28.968871 29.4827586,28.7061448 29.4827586,28.3820238 L29.4827586,24.7890159 C29.4827586,24.4648948 29.2203448,24.2021687 28.8966092,24.2021687 L28.8966092,24.2021687 Z M28.1974713,14.4662817 L26.4748851,24.2021687 L22.3908046,24.2021687 L19.6367816,14.4662817 L28.1974713,14.4662817 L28.1974713,14.4662817 Z M21.3613793,25.3758631 L21.3613793,27.795119 L8.17885057,27.795119 L8.17885057,25.3758631 L21.3613793,25.3758631 L21.3613793,25.3758631 Z M11.0466092,4.39154365 L10.9729885,4.28975595 C10.5362069,3.6860496 10.4775287,2.92923016 10.8160345,2.26527976 C11.1545402,1.60132937 11.8011494,1.20493849 12.5456897,1.20493849 L16.9946552,1.20493849 C17.7391954,1.20493849 18.3858046,1.60132937 18.7243103,2.26527976 C19.0628161,2.92917262 19.0041379,3.68599206 18.5673563,4.28975595 L18.4937356,4.39154365 C17.1572989,6.23879762 16.7467816,8.55695635 17.3675862,10.7516349 L18.0863793,13.2926448 L11.453908,13.2926448 L12.1727011,10.7516349 C12.7935057,8.55689881 12.383046,6.23879762 11.0466092,4.39154365 L11.0466092,4.39154365 Z M1.34275862,14.4662817 L9.90344828,14.4662817 L8.47005747,19.533629 C8.38183908,19.845494 8.56287356,20.1699028 8.87425287,20.2582262 C9.18586207,20.3465496 9.50977011,20.1652996 9.59798851,19.8535496 L11.1218966,14.4663393 L18.4182759,14.4663393 L21.1722989,24.2022262 L3.06534483,24.2022262 L1.34275862,14.4662817 L1.34275862,14.4662817 Z M7.00655172,25.3758631 L7.00655172,27.795119 L1.22977011,27.795119 L1.22977011,25.3758631 L7.00655172,25.3758631 L7.00655172,25.3758631 Z M28.3104598,25.3758631 L28.3104598,27.795119 L22.5336782,27.795119 L22.5336782,25.3758631 L28.3104598,25.3758631 L28.3104598,25.3758631 Z" id="Shape" fill="url(#linearGradient-1)"></path>
                    <path d="M8.60068966,21.2256984 C8.2891954,21.1374325 7.96517241,21.318625 7.87695402,21.630375 L7.63850575,22.4732738 C7.55028736,22.7851389 7.73132184,23.1095476 8.04270115,23.197871 C8.09609195,23.213004 8.14982759,23.220254 8.20270115,23.220254 C8.45827586,23.220254 8.69327586,23.0515476 8.76637931,22.7931944 L9.00482759,21.9502956 C9.09316092,21.6384306 8.91212644,21.3140218 8.60068966,21.2256984 L8.60068966,21.2256984 Z" id="Shape" fill="#603813"></path>
                </g>
            </g>
        </g>
    </g>
</svg>