<?xml version="1.0" encoding="UTF-8" standalone="no"?>
<svg width="60px" height="60px" viewBox="0 0 60 60" version="1.1" xmlns="http://www.w3.org/2000/svg" xmlns:xlink="http://www.w3.org/1999/xlink">
    <!-- Generator: Sketch 44.1 (41455) - http://www.bohemiancoding.com/sketch -->
    <title>默认头像1_slice</title>
    <desc>Created with Sketch.</desc>
    <defs>
        <linearGradient x1="50%" y1="0%" x2="50%" y2="100%" id="linearGradient-1">
            <stop stop-color="#FBDA61" offset="0%"></stop>
            <stop stop-color="#F76B1C" offset="100%"></stop>
        </linearGradient>
        <linearGradient x1="70.0821895%" y1="88.7207031%" x2="43.1849351%" y2="14.8123605%" id="linearGradient-2">
            <stop stop-color="#3023AE" offset="0%"></stop>
            <stop stop-color="#C96DD8" offset="100%"></stop>
        </linearGradient>
        <linearGradient x1="50%" y1="100%" x2="72.7656894%" y2="-25.3533359%" id="linearGradient-3">
            <stop stop-color="#3023AE" offset="0%"></stop>
            <stop stop-color="#C96DD8" offset="100%"></stop>
        </linearGradient>
    </defs>
    <g id="设计图" stroke="none" stroke-width="1" fill="none" fill-rule="evenodd">
        <g id="Artboard">
            <g id="默认头像1">
                <circle id="Oval" fill="#FFFFFF" opacity="0.200000003" cx="30" cy="30" r="30"></circle>
                <circle id="Oval" fill="url(#linearGradient-1)" opacity="0.200000003" cx="30" cy="30" r="30"></circle>
                <g id="pencil" transform="translate(16.000000, 16.000000)">
                    <polygon id="Shape" fill="#E6E6E6" points="8.24889844 25.1146875 2.8853125 19.7511562 1.70985938 23.6355547 4.3645 26.29025"></polygon>
                    <polygon id="Shape" fill="#B3B3B3" points="4.3645 26.29025 1.70985938 23.6355547 0.557757813 27.4422422"></polygon>
                    <rect id="Rectangle-path" fill="#FFBA57" transform="translate(12.929407, 15.070506) rotate(45.000000) translate(-12.929407, -15.070506) " x="9.13692013" y="4.65911723" width="7.58497413" height="20.8227769"></rect>
                    <rect id="Rectangle-path" fill="#E6E6E6" transform="translate(21.227529, 6.771853) rotate(135.000000) translate(-21.227529, -6.771853) " x="19.9036945" y="2.97936627" width="2.64766992" height="7.58497413"></rect>
                    <path d="M26.8693906,6.49419531 C27.6332109,5.730375 27.6332109,4.49192187 26.8693906,3.72810156 L24.2719531,1.13066406 C23.5081328,0.366789062 22.2696797,0.366789062 21.5058594,1.13066406 L19.481875,3.15464844 L24.8454062,8.51817969 L26.8693906,6.49419531 L26.8693906,6.49419531 Z" id="Shape" fill="#E8655A"></path>
                    <path d="M2.49090625,19.3568047 C2.49090625,19.3568047 2.4906875,19.3574062 2.49025,19.3586094 C2.42692187,19.4223203 2.37835937,19.5008516 2.35145312,19.5897187 L0.0238984375,27.28075 C-0.03565625,27.4775703 0.0179375,27.6912891 0.163351563,27.8367578 C0.2695,27.9427969 0.412070313,28 0.5578125,28 C0.611734375,28 0.666148438,27.992125 0.719359375,27.9760469 L8.41044531,25.6484922 C8.49964062,25.6214766 8.5785,25.5726953 8.64232031,25.5089844 C8.64248437,25.5089844 8.64330469,25.5090391 8.64330469,25.5090391 L27.2637969,6.88854687 L27.2637969,6.88854687 C27.7385937,6.41375 28.0000547,5.78249219 28.0000547,5.11109375 C28.0000547,4.43964062 27.7385937,3.8084375 27.2637969,3.33358594 L24.6663594,0.736203125 C24.1916172,0.261515625 23.5603047,0 22.8888516,0 C22.2173984,0 21.5861953,0.261460937 21.1113984,0.736257812 L2.49090625,19.3568047 L2.49090625,19.3568047 Z M19.481875,3.94346094 L24.0565937,8.51817969 L22.9732344,9.60153906 L18.3985156,5.02682031 L19.481875,3.94346094 L19.481875,3.94346094 Z M8.24889844,24.325875 L3.67417969,19.7511562 L17.6097031,5.81563281 L22.1844219,10.3903516 L8.24889844,24.325875 L8.24889844,24.325875 Z M3.14945312,20.8040547 L7.19594531,24.8505469 L4.52265625,25.6595937 L2.34046094,23.4773437 L3.14945312,20.8040547 L3.14945312,20.8040547 Z M1.97389062,24.6885078 L3.31154687,26.0261641 L1.3934375,26.6066172 L1.97389062,24.6885078 L1.97389062,24.6885078 Z M26.4749844,6.09978906 L26.4749844,6.09978906 L24.8454062,7.72936719 L20.2706875,3.15464844 L21.9002656,1.52507031 C22.1642969,1.26098437 22.5154453,1.11557031 22.8888516,1.11557031 C23.2623125,1.11557031 23.6134609,1.26098437 23.8774922,1.52507031 L26.4749297,4.12250781 C26.7390156,4.38659375 26.8844297,4.7376875 26.8844297,5.11114844 C26.8844297,5.48460937 26.7390703,5.83570312 26.4749844,6.09978906 L26.4749844,6.09978906 Z" id="Shape" fill="url(#linearGradient-2)"></path>
                    <path d="M16.7928359,14.0518438 C17.0106562,14.2696641 17.0106562,14.6228359 16.7927812,14.8407109 L16.5696562,15.0638359 C16.4607734,15.1727734 16.3179844,15.2271875 16.17525,15.2271875 C16.0325156,15.2271875 15.8897812,15.1727734 15.7808437,15.0638359 C15.5630234,14.8459609 15.5630234,14.4927891 15.7808437,14.2749687 L16.0039687,14.0518438 C16.2218437,13.8340234 16.5750156,13.8340234 16.7928359,14.0518438 Z M14.1633516,15.8924609 C14.3811719,15.6746406 14.7343438,15.6746406 14.9521641,15.8924609 C15.1699844,16.1103359 15.1699844,16.4635078 14.9521641,16.6813281 L8.649375,22.9841172 C8.54049219,23.0930547 8.39770313,23.1474688 8.25496875,23.1474688 C8.11223438,23.1474688 7.9695,23.0930547 7.8605625,22.9841172 C7.64274219,22.7662422 7.64274219,22.4130703 7.8605625,22.19525 L14.1633516,15.8924609 Z" id="Combined-Shape" fill="url(#linearGradient-3)"></path>
                </g>
            </g>
        </g>
    </g>
</svg>