<?xml version="1.0" encoding="UTF-8" standalone="no"?>
<svg width="60px" height="60px" viewBox="0 0 60 60" version="1.1" xmlns="http://www.w3.org/2000/svg" xmlns:xlink="http://www.w3.org/1999/xlink">
    <!-- Generator: Sketch 44.1 (41455) - http://www.bohemiancoding.com/sketch -->
    <title>默认头像3_slice</title>
    <desc>Created with Sketch.</desc>
    <defs>
        <linearGradient x1="50%" y1="0%" x2="50%" y2="100%" id="linearGradient-1">
            <stop stop-color="#FBDA61" offset="0%"></stop>
            <stop stop-color="#F76B1C" offset="100%"></stop>
        </linearGradient>
        <linearGradient x1="112.117915%" y1="100%" x2="0%" y2="36.9997704%" id="linearGradient-2">
            <stop stop-color="#3023AE" offset="0%"></stop>
            <stop stop-color="#C96DD8" offset="100%"></stop>
        </linearGradient>
    </defs>
    <g id="设计图" stroke="none" stroke-width="1" fill="none" fill-rule="evenodd">
        <g id="Artboard">
            <g id="默认头像3">
                <circle id="Oval" fill="#FFFFFF" opacity="0.200000003" cx="30" cy="30" r="30"></circle>
                <circle id="Oval" fill="url(#linearGradient-1)" opacity="0.200000003" cx="30" cy="30" r="30"></circle>
                <g id="stapler-remover" transform="translate(15.000000, 16.000000)">
                    <rect id="Rectangle-path" fill="#E8655A" transform="translate(14.005444, 23.826832) rotate(201.641815) translate(-14.005444, -23.826832) " x="0.324109675" y="22.413971" width="27.3626684" height="2.8257216"></rect>
                    <path d="M29.3787952,22.1807754 L25.97,22.9249336 L13.8083735,18.1078109 L11.1696988,14.3602578 L7.1060241,12.7506412 C5.47524096,12.1046897 3.62879518,12.9008681 2.98174699,14.5287669 L2.98174699,14.5287669 C2.3346988,16.156786 3.13222892,18.0001022 4.76289157,18.6460537 L27.2444578,27.5508148 L29.3787952,22.1807754 L29.3787952,22.1807754 Z" id="Shape" fill="#E6E6E6"></path>
                    <rect id="Rectangle-path" fill="#E8655A" transform="translate(13.742381, 7.325073) rotate(156.639653) translate(-13.742381, -7.325073) " x="0.0616721778" y="5.91227585" width="27.361417" height="2.82559443"></rect>
                    <path d="M29.1583735,8.51145293 L25.7288554,7.86965101 L13.7172289,13.0484488 L11.1922289,16.8732804 L7.1786747,18.6037159 C5.56807229,19.2980792 3.69849398,18.5575894 3.00295181,16.9497169 L3.00295181,16.9497169 C2.30740964,15.3418443 3.04915663,13.4754348 4.65975904,12.7810715 L26.8637952,3.2076264 L29.1583735,8.51145293 L29.1583735,8.51145293 Z" id="Shape" fill="#E6E6E6"></path>
                    <ellipse id="Oval" fill="#B3B3B3" cx="5.91704819" cy="15.6579341" rx="1" ry="1"></ellipse>
                    <path d="M29.9498795,22.4068975 C30.0336747,22.1961709 29.9940964,21.9564574 29.8471084,21.7836183 C29.7,21.6108995 29.4695181,21.5332001 29.2475904,21.5814916 L26.0221687,22.2856575 L14.2055422,17.6052304 L12.7806627,15.5815578 L14.1291566,13.5388813 L25.8,8.50700265 L29.0451205,9.11428487 C29.2681928,9.15602124 29.4964458,9.07152614 29.638253,8.89435706 C29.7800602,8.71712783 29.8123494,8.47639197 29.7222892,8.26825138 L26.3055422,0.370214825 C26.2409639,0.220890035 26.1195783,0.103198285 25.9681325,0.0432999796 C25.8166265,-0.0167186032 25.6475301,-0.0142529099 25.4979518,0.0502760874 L0.37746988,10.880924 C0.227891566,10.945453 0.110060241,11.0665727 0.05,11.2178219 C-0.010060241,11.369011 -0.00759036145,11.5378809 0.0569879518,11.6871456 L1.17939759,14.2814158 C1.27963855,14.5131308 1.50596386,14.6517509 1.74373494,14.6517509 C1.825,14.6517509 1.9076506,14.6355134 1.98704819,14.6013545 L2.34090361,14.4487822 C2.05590361,15.2652274 2.04813253,16.1801199 2.37789157,17.0414286 L2.03686747,16.9063567 C1.88536145,16.846278 1.71626506,16.8488039 1.56668675,16.9133329 C1.41710843,16.9778619 1.29927711,17.0989815 1.23921687,17.2502308 L0.195301205,19.8769158 C0.0701204819,20.1917427 0.22439759,20.5482459 0.539819277,20.6732144 L25.9740964,30.7474959 C26.0484337,30.776964 26.1251205,30.7909162 26.2004819,30.7909162 C26.4449398,30.7909162 26.6761446,30.6441774 26.771747,30.4036219 L29.9498795,22.4068975 L29.9498795,22.4068975 Z M2.06385542,13.2319926 L1.42873494,11.7638828 L25.4210843,1.41969808 L26.0562048,2.8877478 L2.06385542,13.2319926 L2.06385542,13.2319926 Z M26.5433735,4.01396825 L28.1363253,7.6961504 L25.8418675,7.26675893 C25.7215663,7.244267 25.5974096,7.2580388 25.4850602,7.30651072 L13.473494,12.4853086 C13.3635542,12.5326378 13.2699398,12.6111191 13.2040964,12.7108894 L10.78,16.3827277 L6.93493976,18.0404554 C5.63795181,18.5997468 4.12698795,18.0011246 3.56680723,16.706395 C3.00692771,15.4121466 3.60572289,13.9045255 4.90156627,13.344753 L26.5433735,4.01396825 L26.5433735,4.01396825 Z M26.4468675,27.8948091 L25.8561446,29.3812011 L1.56403614,19.759224 L2.15475904,18.2728319 L26.4468675,27.8948091 L26.4468675,27.8948091 Z M7.5760241,19.1004028 L11.4357831,17.4363004 C11.5457229,17.3889711 11.6393373,17.3104899 11.7051807,17.2107195 L12.0538554,16.68258 L13.3057229,18.4605253 C13.3745783,18.5583111 13.4704819,18.6337854 13.581747,18.6779273 L25.7433735,23.49505 C25.8571084,23.540094 25.9816867,23.5501372 26.1012048,23.5241572 L28.3816867,23.0262676 L26.8999398,26.754456 L7.5760241,19.1004028 L7.5760241,19.1004028 Z" id="Shape" fill="url(#linearGradient-2)"></path>
                    <path d="M25.5472892,6.25654635 C25.3095181,6.25654635 25.083253,6.11792628 24.9828916,5.88621125 C24.8483735,5.57517307 24.9918072,5.21421962 25.3033133,5.07986941 L25.7300602,4.8958445 C26.0415663,4.76161456 26.4031928,4.90474505 26.5377711,5.21578323 C26.6722892,5.52682142 26.5288554,5.88777486 26.2173494,6.02212508 L25.7906024,6.20614999 C25.7112048,6.24030886 25.6285542,6.25654635 25.5472892,6.25654635 Z M17.4578916,9.74429957 C17.2201205,9.74429957 16.9937349,9.6056795 16.893494,9.37396447 C16.7590361,9.06292628 16.9024699,8.70197284 17.2139759,8.56762263 L23.4194578,5.89210486 C23.7309639,5.75793506 24.0925904,5.90106555 24.2271687,6.2120436 C24.3616265,6.52308178 24.2181928,6.88403523 23.9066867,7.01838544 L17.7012048,9.69390321 C17.6218072,9.72806208 17.5391566,9.74429957 17.4578916,9.74429957 Z" id="Combined-Shape" fill="url(#linearGradient-2)"></path>
                    <path d="M5.34837349,17.0879761 C5.53427711,17.1616462 5.72608434,17.1965268 5.915,17.1965268 C6.52861446,17.1965268 7.11,16.8281762 7.3496988,16.2251037 C7.66319277,15.4365029 7.27542169,14.5401933 6.48536145,14.2271705 C5.69542169,13.9141477 4.79746988,14.3013217 4.48403614,15.0899827 C4.33216867,15.4720449 4.33843373,15.8903107 4.50168675,16.2676821 C4.66493976,16.6451135 4.96560241,16.9364262 5.34837349,17.0879761 L5.34837349,17.0879761 Z M5.62620482,15.5424074 C5.67487952,15.4200849 5.79277108,15.3453925 5.91722892,15.3453925 C5.95548193,15.3453925 5.99439759,15.3524287 6.03210843,15.3673432 C6.19240964,15.4308498 6.27108434,15.6127097 6.20753012,15.7726791 C6.14391566,15.9325883 5.96192771,16.0111898 5.80150602,15.9477433 C5.69674699,15.9062475 5.6489759,15.8256614 5.62975904,15.7813391 C5.61060241,15.7370769 5.58463855,15.647049 5.62620482,15.5424074 L5.62620482,15.5424074 Z" id="Shape" fill="url(#linearGradient-2)"></path>
                </g>
            </g>
        </g>
    </g>
</svg>