<?xml version="1.0" encoding="UTF-8" standalone="no"?>
<svg width="134px" height="106px" viewBox="0 0 134 106" version="1.1" xmlns="http://www.w3.org/2000/svg" xmlns:xlink="http://www.w3.org/1999/xlink">
    <!-- Generator: Sketch 44.1 (41455) - http://www.bohemiancoding.com/sketch -->
    <title>group_9_slice</title>
    <desc>Created with Sketch.</desc>
    <defs>
        <linearGradient x1="50%" y1="0%" x2="50%" y2="100%" id="linearGradient-1">
            <stop stop-color="#FBDA61" offset="0%"></stop>
            <stop stop-color="#F76B1C" offset="100%"></stop>
        </linearGradient>
        <linearGradient x1="0%" y1="0%" x2="101.999998%" y2="100.999999%" id="linearGradient-2">
            <stop stop-color="#3023AE" offset="0%"></stop>
            <stop stop-color="#C96DD8" offset="100%"></stop>
        </linearGradient>
        <linearGradient x1="50%" y1="0%" x2="50%" y2="98.7045599%" id="linearGradient-3">
            <stop stop-color="#83B7F9" offset="0%"></stop>
            <stop stop-color="#4C3BE1" offset="100%"></stop>
        </linearGradient>
    </defs>
    <g id="设计图" stroke="none" stroke-width="1" fill="none" fill-rule="evenodd">
        <g id="Artboard" transform="translate(-215.000000, -279.000000)">
            <g id="Group-9" transform="translate(215.000000, 279.000000)">
                <rect id="Rectangle-Copy-3" fill="#D8D8D8" opacity="0" x="0" y="0" width="134" height="106"></rect>
                <g id="Group-4" transform="translate(6.000000, 3.000000)">
                    <path d="M61,94 C81.4345357,94 98,77.4345357 98,57 C98,36.5654643 81.4345357,20 61,20 C40.5654643,20 24,36.5654643 24,57 C24,66.2588401 27.4008481,74.7233696 33.0215282,81.2125725 C39.8058564,89.0452335 49.8243044,94 61,94 Z" id="Oval-4-Copy" fill-opacity="0.1" fill="#4E3FE1"></path>
                    <ellipse id="Oval-Copy-7" fill="#F8E81C" opacity="0.800000012" cx="87.1234708" cy="92.25" rx="2.42387857" ry="2.4251269"></ellipse>
                    <ellipse id="Oval-Copy-5" fill="#FFFFFF" opacity="0.200000003" cx="87.2739012" cy="59.4911168" rx="1.67806978" ry="1.67893401"></ellipse>
                    <ellipse id="Oval-Copy-6" fill="#FFFFFF" opacity="0.200000003" cx="69.0015859" cy="77.7728426" rx="1" ry="1"></ellipse>
                    <ellipse id="Oval-Copy-14" fill="url(#linearGradient-1)" transform="translate(59.796783, 2.798223) scale(-1, 1) translate(-59.796783, -2.798223) " cx="59.796783" cy="2.79822335" rx="2.79678296" ry="2.79822335"></ellipse>
                    <polygon id="Triangle" fill="url(#linearGradient-2)" transform="translate(111.936920, 62.472345) scale(-1, 1) rotate(89.000000) translate(-111.936920, -62.472345) " points="111.93692 59.6741218 114.360799 65.2705685 109.513042 65.2705685"></polygon>
                    <polygon id="Triangle" fill="#FFFFFF" opacity="0.200000003" transform="translate(116.512953, 5.603260) scale(-1, 1) rotate(78.000000) translate(-116.512953, -5.603260) " points="116.512953 4.09652454 117.818118 7.10999584 115.207787 7.10999584"></polygon>
                    <ellipse id="Oval-Copy-16" fill="#FFFFFF" opacity="0.200000003" transform="translate(1.130494, 8.936548) scale(-1, -1) translate(-1.130494, -8.936548) " cx="1.13049388" cy="8.93654822" rx="1.11871319" ry="1.11928934"></ellipse>
                    <circle id="Oval-5-Copy-49" stroke="#758EDF" stroke-width="1.1" cx="14.5" cy="49.5" r="3.5"></circle>
                    <circle id="Oval-5-Copy-54" stroke="#F4E580" stroke-width="1.1" cx="98" cy="60" r="2"></circle>
                    <circle id="Oval-5-Copy-59" stroke="#758EDF" stroke-width="1.1" cx="76" cy="28" r="1"></circle>
                    <circle id="Oval-5-Copy-64" stroke="#758EDF" stroke-width="1.1" cx="35" cy="22" r="1"></circle>
                    <circle id="Oval-5-Copy-69" stroke="#758EDF" stroke-width="1.1" cx="22.5" cy="46.5" r="1"></circle>
                    <g id="素材库-copy-5" transform="translate(43.000000, 41.000000)" fill-rule="nonzero" fill="url(#linearGradient-3)">
                        <path d="M32.0520605,28.6388975 C32.0520605,29.8831866 31.0452706,30.887395 29.8009815,30.887395 L1.68830924,30.887395 L5.62511596,12.7032202 C5.62374521,12.1071192 5.85940821,11.534926 6.2801894,11.1126921 C6.7009706,10.6904583 7.27234829,10.4528248 7.86845042,10.4521412 L33.7377882,10.4521412 C34.9794958,10.4521412 35.9837042,11.4589311 35.9837042,12.7032202 L32.0520605,28.6388975 M31.4892908,8.76641346 L31.4892908,6.55663865 C31.4878681,5.31541753 30.4820144,4.30956379 29.2407933,4.30814118 L15.7446454,4.30814118 L15.7446454,2.26874623 C15.7446454,1.02962018 14.7378555,0.0202487597 13.4987294,0.0202487294 L2.24591597,0.0202487294 C1.00612057,0.0216713247 0.00142259528,1.02636929 0,2.2661647 L0,28.641479 L3.93422521,11.0174924 C3.93422521,9.77578487 4.94101513,8.76899496 6.18272268,8.76899496 L31.4892908,8.76641346 Z" id="Shape"></path>
                    </g>
                </g>
            </g>
        </g>
    </g>
</svg>