<?xml version="1.0" encoding="UTF-8" standalone="no"?>
<svg width="134px" height="106px" viewBox="0 0 134 106" version="1.1" xmlns="http://www.w3.org/2000/svg" xmlns:xlink="http://www.w3.org/1999/xlink">
    <!-- Generator: Sketch 44.1 (41455) - http://www.bohemiancoding.com/sketch -->
    <title>group_10_slice</title>
    <desc>Created with Sketch.</desc>
    <defs>
        <linearGradient x1="50%" y1="0%" x2="50%" y2="100%" id="linearGradient-1">
            <stop stop-color="#FBDA61" offset="0%"></stop>
            <stop stop-color="#F76B1C" offset="100%"></stop>
        </linearGradient>
        <linearGradient x1="0%" y1="0%" x2="101.999998%" y2="100.999999%" id="linearGradient-2">
            <stop stop-color="#3023AE" offset="0%"></stop>
            <stop stop-color="#C96DD8" offset="100%"></stop>
        </linearGradient>
        <linearGradient x1="50%" y1="0%" x2="50%" y2="100%" id="linearGradient-3">
            <stop stop-color="#F3D789" offset="0%"></stop>
            <stop stop-color="#FFA438" offset="100%"></stop>
        </linearGradient>
    </defs>
    <g id="设计图" stroke="none" stroke-width="1" fill="none" fill-rule="evenodd">
        <g id="Artboard" transform="translate(-27.000000, -467.000000)">
            <g id="Group-10" transform="translate(27.000000, 467.000000)">
                <rect id="Rectangle-Copy-4" fill="#D8D8D8" opacity="0" x="0" y="0" width="134" height="106"></rect>
                <g id="Group-5" transform="translate(28.000000, 23.000000)">
                    <path d="M39,74 C59.4345357,74 76,57.4345357 76,37 C76,16.5654643 59.4345357,0 39,0 C18.5654643,0 2,16.5654643 2,37 C2,46.2588401 5.40084806,54.7233696 11.0215282,61.2125725 C17.8058564,69.0452335 27.8243044,74 39,74 Z" id="Oval-4-Copy-3" fill-opacity="0.1" fill="#FEAB43"></path>
                    <ellipse id="Oval-Copy-7" fill="#F8E81C" opacity="0.800000012" transform="translate(16.139086, 24.327829) scale(-1, -1) rotate(-47.000000) translate(-16.139086, -24.327829) " cx="16.1390855" cy="24.3278288" rx="2.42387857" ry="2.4251269"></ellipse>
                    <ellipse id="Oval-Copy-5" fill="#FFFFFF" opacity="0.200000003" transform="translate(39.994823, 46.779351) scale(-1, -1) rotate(-47.000000) translate(-39.994823, -46.779351) " cx="39.9948228" cy="46.7793513" rx="1.67806978" ry="1.67893401"></ellipse>
                    <ellipse id="Oval-Copy-6" fill="#FFFFFF" opacity="0.200000003" transform="translate(39.086104, 20.947719) scale(-1, -1) rotate(-47.000000) translate(-39.086104, -20.947719) " cx="39.086104" cy="20.9477187" rx="1" ry="1"></ellipse>
                    <ellipse id="Oval-Copy-14" fill="url(#linearGradient-1)" transform="translate(100.196730, 65.348319) scale(1, -1) rotate(-47.000000) translate(-100.196730, -65.348319) " cx="100.19673" cy="65.3483195" rx="2.79678296" ry="2.79822335"></ellipse>
                    <polygon id="Triangle" fill="url(#linearGradient-2)" transform="translate(20.994352, 62.783549) scale(1, -1) rotate(42.000000) translate(-20.994352, -62.783549) " points="20.9943517 59.9853255 23.4182302 65.5817722 18.5704731 65.5817722"></polygon>
                    <g id="我的课堂-(1)-copy-9" transform="translate(17.000000, 22.000000)" fill-rule="nonzero" fill="url(#linearGradient-3)">
                        <path d="M19.7851245,30.7926421 L19.5064608,30.6548868 C13.0507512,26.6140628 5.01594706,27.2569212 1.6255384,27.7620242 C0.789547223,27.8997795 0,27.2110027 0,26.3385521 L0,2.27728201 C0,1.63442365 0.417995588,1.0834022 1.02176699,0.89972838 C3.2510768,0.302788474 5.29461079,0.0272777485 7.24525687,0.0731962028 L7.05948105,0.0731962028 L7.33814477,0.0731962028 C13.6080786,0.165033111 18.1131422,2.96605882 19.7386806,4.15993864 L19.7851245,30.7926421 Z M42.4033302,2.27728201 L42.4033302,26.3844705 C42.4033302,27.2569212 41.660227,27.945698 40.7777919,27.8079426 C37.3873832,27.3028396 29.3061351,26.6599813 22.8504255,30.6548868 C22.7575376,30.7008052 22.7110936,30.7467237 22.6182057,30.7926421 L22.6182057,4.11402018 C24.8475155,2.50687428 31.9069966,-1.71762352 41.3351193,0.945646835 C41.9853347,1.0834022 42.4033302,1.63442365 42.4033302,2.27728201 Z" id="Shape-Copy-2"></path>
                    </g>
                    <circle id="Oval-5-Copy-46" stroke="#F1E067" stroke-width="1.1" cx="74.5" cy="9.5" r="3.5"></circle>
                    <circle id="Oval-5-Copy-51" stroke="#0545FE" stroke-width="1.1" cx="2" cy="64" r="2"></circle>
                    <circle id="Oval-5-Copy-56" stroke="#758EDF" stroke-width="1.1" cx="54" cy="8" r="1"></circle>
                    <circle id="Oval-5-Copy-61" stroke="#DF75C8" stroke-width="1.1" cx="13" cy="2" r="1"></circle>
                    <circle id="Oval-5-Copy-66" stroke="#758EDF" stroke-width="1.1" cx="0.5" cy="26.5" r="1"></circle>
                </g>
            </g>
        </g>
    </g>
</svg>