<?xml version="1.0" encoding="UTF-8" standalone="no"?>
<svg width="40px" height="30px" viewBox="0 0 40 30" version="1.1" xmlns="http://www.w3.org/2000/svg" xmlns:xlink="http://www.w3.org/1999/xlink">
    <!-- Generator: Sketch 44.1 (41455) - http://www.bohemiancoding.com/sketch -->
    <title>级_选中_slice</title>
    <desc>Created with Sketch.</desc>
    <defs></defs>
    <g id="Symbols" stroke="none" stroke-width="1" fill="none" fill-rule="evenodd">
        <g id="Artboard" transform="translate(-4.000000, 0.000000)">
            <g id="班级_选中" transform="translate(4.000000, 0.000000)">
                <rect id="Rectangle" fill="#D8D8D8" opacity="0" x="0" y="0" width="40" height="30"></rect>
                <g id="班级-2" transform="translate(6.000000, 2.000000)">
                    <path d="M27.6032261,16.2758242 C27.6032261,14.2758242 26.2790882,12.5901099 24.3996666,12.0758242 C24.4139047,11.832967 24.4423807,11.5901099 24.4423807,11.332967 C24.4423807,6.16153846 20.2563963,1.96153846 15.102225,1.96153846 C9.94805372,1.96153846 5.76206929,6.16153846 5.76206929,11.332967 C5.76206929,11.5901099 5.80478342,11.832967 5.81902146,12.0758242 C3.93959988,12.5901099 2.61546195,14.2758242 2.61546195,16.2758242 C2.61546195,18.0901099 3.74026729,19.7043956 5.37764215,20.3472527 L3.37007819,26.1186813 C3.25617385,26.4472527 3.42703036,26.8043956 3.75450533,26.9186813 C3.82569554,26.9472527 3.89688575,26.9472527 3.95383792,26.9472527 C4.21012268,26.9472527 4.4521694,26.7901099 4.53759766,26.532967 L6.77297029,20.1186813 C6.78720833,20.0901099 6.78720833,20.0615385 6.80144638,20.032967 C6.87263659,19.7043956 6.673304,19.3901099 6.36006707,19.3043956 C6.28887686,19.2758242 6.2034486,19.2758242 6.13225839,19.2901099 C4.80812046,18.9186813 3.85417163,17.6758242 3.85417163,16.2758242 C3.85417163,14.9043956 4.72269221,13.732967 5.98987797,13.3186813 C6.71601812,16.5901099 9.13648531,19.3186813 12.3827589,20.3043956 L10.375195,26.0615385 C10.2612906,26.3901099 10.4321472,26.7472527 10.7596221,26.8615385 C10.8308123,26.8901099 10.9020026,26.8901099 10.9589547,26.8901099 C11.2152395,26.8901099 19.4163518,26.8901099 19.6726366,26.8901099 C19.7438268,26.8901099 19.815017,26.8758242 19.8719692,26.8615385 C20.1994442,26.7472527 20.3703007,26.3901099 20.2563963,26.0615385 L18.2488324,20.1472527 C21.3100114,19.0615385 23.5453841,16.4758242 24.2288101,13.3043956 C25.4959959,13.7186813 26.3787545,14.8901099 26.3787545,16.2615385 C26.3787545,17.6758242 25.4105676,18.932967 24.0579536,19.2901099 C24.0010014,19.2901099 23.9298112,19.3043956 23.8728591,19.3186813 C23.5596221,19.4186813 23.3745276,19.7615385 23.4457178,20.0901099 C23.4599558,20.132967 23.4741939,20.1615385 23.4884319,20.2043956 L25.6953285,26.532967 C25.7807567,26.7901099 26.0228034,26.9472527 26.2790882,26.9472527 C26.3502784,26.9472527 26.4214686,26.932967 26.4926588,26.9186813 C26.8201338,26.8043956 26.9909903,26.4472527 26.877086,26.1186813 L24.8410459,20.3472527 C26.4784208,19.7043956 27.6032261,18.0901099 27.6032261,16.2758242 Z" id="Combined-Shape" fill="#11EAFF" fill-rule="nonzero" opacity="0.300000012"></path>
                    <path d="M23.1871224,19.3472527 C24.8244973,18.7043956 25.9493026,17.0901099 25.9493026,15.2758242 C25.9493026,13.2758242 24.6251647,11.5901099 22.7457431,11.0758242 C22.7599812,10.832967 22.7884573,10.5901099 22.7884573,10.332967 C22.7884573,5.16153846 18.6024728,0.961538462 13.4483015,0.961538462 C8.29413023,0.961538462 4.1081458,5.16153846 4.1081458,10.332967 C4.1081458,10.5901099 4.15085993,10.832967 4.16509797,11.0758242 C2.28567639,11.5901099 0.961538462,13.2758242 0.961538462,15.2758242 C0.961538462,17.0901099 2.0863438,18.7043956 3.72371866,19.3472527 L1.7161547,25.1186813 C1.60225036,25.4472527 1.77310687,25.8043956 2.10058184,25.9186813 C2.17177205,25.9472527 2.24296227,25.9472527 2.29991443,25.9472527 C2.5561992,25.9472527 2.79824591,25.7901099 2.88367417,25.532967 L5.1190468,19.1186813 C5.13328485,19.0901099 5.13328485,19.0615385 5.14752289,19.032967 C5.2187131,18.7043956 5.01938051,18.3901099 4.70614358,18.3043956 C4.63495337,18.2758242 4.54952511,18.2758242 4.4783349,18.2901099 C3.15419697,17.9186813 2.20024814,16.6758242 2.20024814,15.2758242 C2.20024814,13.9043956 3.06876872,12.732967 4.33595448,12.3186813 C5.06209464,15.5901099 7.48256182,18.3186813 10.7288355,19.3043956 L8.7212715,25.0615385 C8.60736716,25.3901099 8.77822367,25.7472527 9.10569864,25.8615385 C9.17688885,25.8901099 9.24807906,25.8901099 9.30503123,25.8901099 C9.56131599,25.8901099 9.80336271,25.732967 9.88879096,25.4758242 L12.1241636,19.0758242 C12.1811158,18.9043956 12.1668777,18.7186813 12.0814495,18.5615385 C11.9960212,18.4043956 11.8394028,18.2901099 11.6685462,18.2615385 C7.99513134,17.4472527 5.33261744,14.1186813 5.33261744,10.332967 C5.33261744,5.86153846 8.96331822,2.21868132 13.4198254,2.21868132 C17.8763327,2.21868132 21.5070335,5.86153846 21.5070335,10.332967 C21.5070335,10.6758242 21.4927954,11.0043956 21.4500813,11.3186813 C21.0514161,14.5901099 18.7448533,17.2615385 15.5840079,18.1472527 C15.4131514,18.1901099 15.285009,18.3043956 15.1995807,18.4615385 C15.1141525,18.6186813 15.1141525,18.7901099 15.1711046,18.9615385 L17.4349534,25.4758242 C17.5203816,25.732967 17.7624283,25.8901099 18.0187131,25.8901099 C18.0899033,25.8901099 18.1610935,25.8758242 18.2180457,25.8615385 C18.5455207,25.7472527 18.7163772,25.3901099 18.6024728,25.0615385 L16.5949089,19.1472527 C19.656088,18.0615385 21.8914606,15.4758242 22.5748866,12.3043956 C23.8420724,12.7186813 24.724831,13.8901099 24.724831,15.2615385 C24.724831,16.6758242 23.7566441,17.932967 22.4040301,18.2901099 C22.3470779,18.2901099 22.2758877,18.3043956 22.2189356,18.3186813 C21.9056986,18.4186813 21.7206041,18.7615385 21.7917943,19.0901099 C21.8060323,19.132967 21.8202704,19.1615385 21.8345084,19.2043956 L24.041405,25.532967 C24.1268332,25.7901099 24.36888,25.9472527 24.6251647,25.9472527 C24.6963549,25.9472527 24.7675451,25.932967 24.8387353,25.9186813 C25.1662103,25.8043956 25.3370668,25.4472527 25.2231625,25.1186813 L23.1871224,19.3472527 L23.1871224,19.3472527 Z" id="Shape" fill="#2D8DFF" fill-rule="nonzero"></path>
                    <path d="M17.4234537,10.5769231 C17.0817407,10.5769231 16.7969799,10.8626374 16.7969799,11.2054945 C16.7969799,12.9340659 15.4016517,14.3340659 13.6788486,14.3340659 C11.9560455,14.3340659 10.5607174,12.9340659 10.5607174,11.2054945 C10.5607174,10.8626374 10.2759565,10.5769231 9.9342435,10.5769231 C9.59253049,10.5769231 9.30776964,10.8626374 9.30776964,11.2054945 C9.30776964,13.6197802 11.2583814,15.5769231 13.6646106,15.5769231 C16.0708397,15.5769231 18.0499276,13.6054945 18.0499276,11.2054945 C18.0499276,10.8626374 17.7651668,10.5769231 17.4234537,10.5769231 Z" id="Path" fill="#2D8DFF"></path>
                </g>
                <g id="Group-3" transform="translate(3.000000, 2.000000)">
                    <circle id="Oval-2" fill="#F8E81C" cx="26.75" cy="0.75" r="1"></circle>
                    <circle id="Oval-2-Copy" fill="#50E3C2" cx="6.5" cy="3.5" r="1"></circle>
                    <polygon id="Star" fill="#F6A623" transform="translate(1.730873, 12.204496) rotate(38.000000) translate(-1.730873, -12.204496) " points="1.73087305 13.329496 0.431834948 13.329496 1.081354 12.204496 1.73087305 11.079496 2.38039211 12.204496 3.02991116 13.329496"></polygon>
                    <rect id="Rectangle-2" fill="#BD0FE1" x="29" y="8" width="1" height="1"></rect>
                </g>
            </g>
        </g>
    </g>
</svg>