<?xml version="1.0" encoding="UTF-8" standalone="no"?>
<svg width="40px" height="30px" viewBox="0 0 40 30" version="1.1" xmlns="http://www.w3.org/2000/svg" xmlns:xlink="http://www.w3.org/1999/xlink">
    <!-- Generator: Sketch 44.1 (41455) - http://www.bohemiancoding.com/sketch -->
    <title>group_4_slice</title>
    <desc>Created with Sketch.</desc>
    <defs></defs>
    <g id="Symbols" stroke="none" stroke-width="1" fill="none" fill-rule="evenodd">
        <g id="Artboard" transform="translate(-4.000000, 0.000000)">
            <g id="Group-4" transform="translate(4.000000, 0.000000)">
                <rect id="Rectangle" fill="#D8D8D8" opacity="0" x="0" y="0" width="40" height="30"></rect>
                <path d="M29.1871224,21.3472527 C30.8244973,20.7043956 31.9493026,19.0901099 31.9493026,17.2758242 C31.9493026,15.2758242 30.6251647,13.5901099 28.7457431,13.0758242 C28.7599812,12.832967 28.7884573,12.5901099 28.7884573,12.332967 C28.7884573,7.16153846 24.6024728,2.96153846 19.4483015,2.96153846 C14.2941302,2.96153846 10.1081458,7.16153846 10.1081458,12.332967 C10.1081458,12.5901099 10.1508599,12.832967 10.165098,13.0758242 C8.28567639,13.5901099 6.96153846,15.2758242 6.96153846,17.2758242 C6.96153846,19.0901099 8.0863438,20.7043956 9.72371866,21.3472527 L7.7161547,27.1186813 C7.60225036,27.4472527 7.77310687,27.8043956 8.10058184,27.9186813 C8.17177205,27.9472527 8.24296227,27.9472527 8.29991443,27.9472527 C8.5561992,27.9472527 8.79824591,27.7901099 8.88367417,27.532967 L11.1190468,21.1186813 C11.1332848,21.0901099 11.1332848,21.0615385 11.1475229,21.032967 C11.2187131,20.7043956 11.0193805,20.3901099 10.7061436,20.3043956 C10.6349534,20.2758242 10.5495251,20.2758242 10.4783349,20.2901099 C9.15419697,19.9186813 8.20024814,18.6758242 8.20024814,17.2758242 C8.20024814,15.9043956 9.06876872,14.732967 10.3359545,14.3186813 C11.0620946,17.5901099 13.4825618,20.3186813 16.7288355,21.3043956 L14.7212715,27.0615385 C14.6073672,27.3901099 14.7782237,27.7472527 15.1056986,27.8615385 C15.1768889,27.8901099 15.2480791,27.8901099 15.3050312,27.8901099 C15.561316,27.8901099 15.8033627,27.732967 15.888791,27.4758242 L18.1241636,21.0758242 C18.1811158,20.9043956 18.1668777,20.7186813 18.0814495,20.5615385 C17.9960212,20.4043956 17.8394028,20.2901099 17.6685462,20.2615385 C13.9951313,19.4472527 11.3326174,16.1186813 11.3326174,12.332967 C11.3326174,7.86153846 14.9633182,4.21868132 19.4198254,4.21868132 C23.8763327,4.21868132 27.5070335,7.86153846 27.5070335,12.332967 C27.5070335,12.6758242 27.4927954,13.0043956 27.4500813,13.3186813 C27.0514161,16.5901099 24.7448533,19.2615385 21.5840079,20.1472527 C21.4131514,20.1901099 21.285009,20.3043956 21.1995807,20.4615385 C21.1141525,20.6186813 21.1141525,20.7901099 21.1711046,20.9615385 L23.4349534,27.4758242 C23.5203816,27.732967 23.7624283,27.8901099 24.0187131,27.8901099 C24.0899033,27.8901099 24.1610935,27.8758242 24.2180457,27.8615385 C24.5455207,27.7472527 24.7163772,27.3901099 24.6024728,27.0615385 L22.5949089,21.1472527 C25.656088,20.0615385 27.8914606,17.4758242 28.5748866,14.3043956 C29.8420724,14.7186813 30.724831,15.8901099 30.724831,17.2615385 C30.724831,18.6758242 29.7566441,19.932967 28.4040301,20.2901099 C28.3470779,20.2901099 28.2758877,20.3043956 28.2189356,20.3186813 C27.9056986,20.4186813 27.7206041,20.7615385 27.7917943,21.0901099 C27.8060323,21.132967 27.8202704,21.1615385 27.8345084,21.2043956 L30.041405,27.532967 C30.1268332,27.7901099 30.36888,27.9472527 30.6251647,27.9472527 C30.6963549,27.9472527 30.7675451,27.932967 30.8387353,27.9186813 C31.1662103,27.8043956 31.3370668,27.4472527 31.2231625,27.1186813 L29.1871224,21.3472527 L29.1871224,21.3472527 Z" id="Shape" fill="#9496AB" fill-rule="nonzero"></path>
                <path d="M23.4234537,12.5769231 C23.0817407,12.5769231 22.7969799,12.8626374 22.7969799,13.2054945 C22.7969799,14.9340659 21.4016517,16.3340659 19.6788486,16.3340659 C17.9560455,16.3340659 16.5607174,14.9340659 16.5607174,13.2054945 C16.5607174,12.8626374 16.2759565,12.5769231 15.9342435,12.5769231 C15.5925305,12.5769231 15.3077696,12.8626374 15.3077696,13.2054945 C15.3077696,15.6197802 17.2583814,17.5769231 19.6646106,17.5769231 C22.0708397,17.5769231 24.0499276,15.6054945 24.0499276,13.2054945 C24.0499276,12.8626374 23.7651668,12.5769231 23.4234537,12.5769231 Z" id="Path" fill="#9496AB"></path>
            </g>
        </g>
    </g>
</svg>