<?xml version="1.0" encoding="UTF-8" standalone="no"?>
<svg width="40px" height="30px" viewBox="0 0 40 30" version="1.1" xmlns="http://www.w3.org/2000/svg" xmlns:xlink="http://www.w3.org/1999/xlink">
    <!-- Generator: Sketch 44.1 (41455) - http://www.bohemiancoding.com/sketch -->
    <title>group_5_slice</title>
    <desc>Created with Sketch.</desc>
    <defs></defs>
    <g id="Symbols" stroke="none" stroke-width="1" fill="none" fill-rule="evenodd">
        <g id="Artboard" transform="translate(-4.000000, 0.000000)">
            <g id="Group-5" transform="translate(4.000000, 0.000000)">
                <rect id="Rectangle" fill="#D8D8D8" opacity="0" x="0" y="0" width="40" height="30"></rect>
                <g id="Group" opacity="0.300000012" transform="translate(8.000000, 4.000000)" fill-rule="nonzero" fill="#BD0FE1">
                    <path d="M21.8510116,19.2284134 L18.307709,16.0662361 L11.6442013,16.0662361 C9.97611499,16.0662361 8.62286616,14.6885705 8.62286616,12.9966514 L8.62286616,4.06006325 C8.62286616,2.36814406 9.97887672,0.990478516 11.6442013,0.990478516 L24.4884659,0.990478516 C26.1537905,0.990478516 27.5098011,2.36814406 27.5098011,4.06006325 L27.5098011,12.9938455 C27.5098011,14.6857647 26.1537905,16.0634303 24.4884659,16.0634303 L23.3174914,16.0634303 L23.3174914,18.5550127 C23.3174914,18.9085481 23.1131232,19.2284134 22.7982858,19.3743169 C22.6795313,19.4276278 22.5552533,19.4528803 22.4337371,19.4528803 C22.2238454,19.4528803 22.0139538,19.3771227 21.8510116,19.2284134 Z" id="Shape"></path>
                    <path d="M6.37844422,7.73104729 C6.33893795,7.7302534 6.3005048,7.72965477 6.26358383,7.72965477 L3.54880097,7.72965477 C2.24762767,7.72965477 1.66162945,8.9825129 1.66162945,9.5433876 C1.66162945,12.9879172 1.66162945,15.5713143 1.66162945,17.2935791 C1.66162945,17.5565993 1.66162945,17.9511295 1.66162945,18.4771699 C1.66162945,19.1814347 2.85836789,20.3531464 3.54880097,20.3531464 L5.37267353,20.3531464 C5.86150014,20.3531464 5.8465876,21.1545837 5.8465876,21.6512167 L5.8465876,23.5707978 L8.97008149,20.8924531 C9.12750023,20.7633846 9.49481063,20.3531464 9.69917882,20.3531464 L14.7257263,20.3531464 C15.4189212,20.3531464 16.1870464,19.1494721 16.1848539,18.5125234 C16.1845944,18.4371437 16.1853253,18.0091603 16.1870464,17.228573 L16.1902447,17.228573 C16.1902217,17.2263839 16.1902101,17.224192 16.1902101,17.2219974 C16.1902101,16.8836437 16.4646169,16.6093538 16.8031147,16.6093538 C17.1416126,16.6093538 17.4160193,16.8836437 17.4160193,17.2219974 C17.4160193,17.243682 17.4148922,17.2651033 17.4126934,17.2862062 C17.4126445,18.0562142 17.4126458,18.4532021 17.4126972,18.4771699 C17.4155378,19.8019685 16.0566866,21.5821081 14.391362,21.5821081 L10.0140163,21.5821081 L6.16139973,24.769538 C6.00121926,24.9014123 5.80237453,24.9715582 5.6035298,24.9715582 C5.47372839,24.9715582 5.34392697,24.9434998 5.22517248,24.8845773 C4.91585846,24.735868 4.71977547,24.4216143 4.71977547,24.0736906 L4.71977547,21.5821081 L3.54880097,21.5821081 C1.88347638,21.5821081 0.52746582,20.2044426 0.52746582,18.5125234 L0.52746582,9.57874114 C0.52746582,7.88401611 1.88347638,6.5091564 3.54880097,6.5091564 L6.26358383,6.5091564 C6.30947811,6.5091564 6.35770893,6.50844149 6.40743301,6.50774694 C6.41297426,6.50766954 6.41845348,6.50775856 6.42387063,6.50801015 C6.42620499,6.50798399 6.42854248,6.50797087 6.43088303,6.50797087 C6.76938088,6.50797087 7.04378762,6.78226079 7.04378762,7.12061454 C7.04378762,7.4589683 6.76938088,7.73325821 6.43088303,7.73325821 C6.41321893,7.73325821 6.39572937,7.73251128 6.37844422,7.73104729 Z" id="Combined-Shape"></path>
                </g>
                <g id="Group" transform="translate(7.000000, 4.000000)" fill="#2D8DFF">
                    <path d="M21.3235458,18.2379349 L17.7802432,15.0757576 L11.1167355,15.0757576 C9.44864917,15.0757576 8.09540034,13.698092 8.09540034,12.0061728 L8.09540034,3.06958474 C8.09540034,1.37766554 9.4514109,0 11.1167355,0 L23.9610001,0 C25.6263247,0 26.9823353,1.37766554 26.9823353,3.06958474 L26.9823353,12.003367 C26.9823353,13.6952862 25.6263247,15.0729517 23.9610001,15.0729517 L22.7900256,15.0729517 L22.7900256,17.5645342 C22.7900256,17.9180696 22.5856574,18.2379349 22.2708199,18.3838384 C22.1520654,18.4371493 22.0277875,18.4624018 21.9062713,18.4624018 C21.6963796,18.4624018 21.486488,18.3866442 21.3235458,18.2379349 Z M10.84033,1.23304291 C10.0568167,1.23304291 9.33245495,2.00110165 9.33245495,2.793956 L9.33245495,11.9438583 C9.33245495,12.7398841 10.0486402,13.7667343 10.829032,13.7667343 L18.0478801,13.7667343 C18.2913624,13.7667343 18.6800213,14.1768939 18.8610722,14.3418076 L21.6124372,17.0698349 L21.6124372,14.994165 C21.6124372,14.4328241 22.0253411,13.8753075 22.5778585,13.8753075 L24.4257446,13.8753075 C25.209258,13.8753075 25.8429361,12.87099 25.8429361,12.0781357 L25.8429361,3.05162471 C25.8429361,2.30002656 24.7893999,1.23304291 24.0090081,1.23304291 L10.84033,1.23304291 Z" id="Shape" fill-rule="nonzero"></path>
                    <path d="M5.8509784,6.74056878 C5.81147213,6.73977488 5.77303898,6.73917626 5.73611801,6.73917626 L3.02133515,6.73917626 C1.72016185,6.73917626 1.13416363,7.99203438 1.13416363,8.55290909 L1.13416363,17.4866914 C1.13416363,18.1909562 2.33090207,19.3626679 3.02133515,19.3626679 L4.84520771,19.3626679 C5.33403432,19.3626679 5.31912178,20.1641051 5.31912178,20.6607381 L5.31912178,22.5803193 L8.44261567,19.9019746 C8.60003441,19.7729061 8.96734481,19.3626679 9.171713,19.3626679 L14.1982605,19.3626679 C14.8914553,19.3626679 15.6595806,18.1589936 15.6573881,17.5220449 C15.6571286,17.4466652 15.6578594,17.0186818 15.6595806,16.2380945 L15.6627789,16.2380945 C15.6627558,16.2359054 15.6627443,16.2337135 15.6627443,16.2315189 C15.6627443,15.8931652 15.937151,15.6188753 16.2756489,15.6188753 C16.6141468,15.6188753 16.8885535,15.8931652 16.8885535,16.2315189 C16.8885535,16.2532034 16.8874264,16.2746248 16.8852276,16.2957277 C16.8851787,17.0657357 16.8851799,17.4627236 16.8852313,17.4866914 C16.8880719,18.8114899 15.5292208,20.5916296 13.8638962,20.5916296 L9.48655048,20.5916296 L5.63393391,23.7790595 C5.47375344,23.9109338 5.27490871,23.9810797 5.07606398,23.9810797 C4.94626257,23.9810797 4.81646115,23.9530213 4.69770666,23.8940988 C4.38839264,23.7453894 4.19230964,23.4311358 4.19230964,23.0832121 L4.19230964,20.5916296 L3.02133515,20.5916296 C1.35601056,20.5916296 0,19.2139641 0,17.5220449 L0,8.58826262 C0,6.89353759 1.35601056,5.51867788 3.02133515,5.51867788 L5.73611801,5.51867788 C5.78201229,5.51867788 5.83024311,5.51796297 5.87996719,5.51726843 C5.88550844,5.51719103 5.89098766,5.51728004 5.89640481,5.51753163 C5.89873917,5.51750547 5.90107665,5.51749236 5.90341721,5.51749236 C6.24191506,5.51749236 6.5163218,5.79178227 6.5163218,6.13013603 C6.5163218,6.46848978 6.24191506,6.7427797 5.90341721,6.7427797 C5.88575311,6.7427797 5.86826355,6.74203277 5.8509784,6.74056878 Z" id="Combined-Shape" fill-rule="nonzero"></path>
                    <circle id="Oval-3" cx="14" cy="8" r="1"></circle>
                    <circle id="Oval-3" cx="18" cy="8" r="1"></circle>
                    <circle id="Oval-3" cx="22" cy="8" r="1"></circle>
                </g>
                <g id="Group-3" transform="translate(0.000000, 1.000000)">
                    <circle id="Oval-2" fill="#F8E81C" cx="34.75" cy="0.75" r="1"></circle>
                    <circle id="Oval-2-Copy" fill="#50E3C2" cx="6.5" cy="6.5" r="1"></circle>
                    <polygon id="Star" fill="#F6A623" transform="translate(2.500000, 15.500000) rotate(38.000000) translate(-2.500000, -15.500000) " points="2.5 16.25 1.20096189 16.25 1.85048095 15.125 2.5 14 3.14951905 15.125 3.79903811 16.25"></polygon>
                    <rect id="Rectangle-2" fill="#BD0FE1" x="33" y="23" width="1" height="1"></rect>
                </g>
            </g>
        </g>
    </g>
</svg>