<?xml version="1.0" encoding="UTF-8" standalone="no"?>
<svg width="40px" height="30px" viewBox="0 0 40 30" version="1.1" xmlns="http://www.w3.org/2000/svg" xmlns:xlink="http://www.w3.org/1999/xlink">
    <!-- Generator: Sketch 44.1 (41455) - http://www.bohemiancoding.com/sketch -->
    <title>group_slice</title>
    <desc>Created with Sketch.</desc>
    <defs></defs>
    <g id="Symbols" stroke="none" stroke-width="1" fill="none" fill-rule="evenodd">
        <g id="Artboard" transform="translate(-4.000000, 0.000000)">
            <g id="Group" transform="translate(4.000000, 0.000000)">
                <path d="M28.3235458,22.2379349 L24.7802432,19.0757576 L18.1167355,19.0757576 C16.4486492,19.0757576 15.0954003,17.698092 15.0954003,16.0061728 L15.0954003,7.06958474 C15.0954003,5.37766554 16.4514109,4 18.1167355,4 L30.9610001,4 C32.6263247,4 33.9823353,5.37766554 33.9823353,7.06958474 L33.9823353,16.003367 C33.9823353,17.6952862 32.6263247,19.0729517 30.9610001,19.0729517 L29.7900256,19.0729517 L29.7900256,21.5645342 C29.7900256,21.9180696 29.5856574,22.2379349 29.2708199,22.3838384 C29.1520654,22.4371493 29.0277875,22.4624018 28.9062713,22.4624018 C28.6963796,22.4624018 28.486488,22.3866442 28.3235458,22.2379349 Z M17.84033,5.23304291 C17.0568167,5.23304291 16.3324549,6.00110165 16.3324549,6.793956 L16.3324549,15.9438583 C16.3324549,16.7398841 17.0486402,17.7667343 17.829032,17.7667343 L25.0478801,17.7667343 C25.2913624,17.7667343 25.6800213,18.1768939 25.8610722,18.3418076 L28.6124372,21.0698349 L28.6124372,18.994165 C28.6124372,18.4328241 29.0253411,17.8753075 29.5778585,17.8753075 L31.4257446,17.8753075 C32.209258,17.8753075 32.8429361,16.87099 32.8429361,16.0781357 L32.8429361,7.05162471 C32.8429361,6.30002656 31.7893999,5.23304291 31.0090081,5.23304291 L17.84033,5.23304291 Z" id="Shape" fill="#9496AB" fill-rule="nonzero"></path>
                <path d="M12.8509784,10.7405688 C12.8114721,10.7397749 12.773039,10.7391763 12.736118,10.7391763 L10.0213351,10.7391763 C8.72016185,10.7391763 8.13416363,11.9920344 8.13416363,12.5529091 L8.13416363,21.4866914 C8.13416363,22.1909562 9.33090207,23.3626679 10.0213351,23.3626679 L11.8452077,23.3626679 C12.3340343,23.3626679 12.3191218,24.1641051 12.3191218,24.6607381 L12.3191218,26.5803193 L15.4426157,23.9019746 C15.6000344,23.7729061 15.9673448,23.3626679 16.171713,23.3626679 L21.1982605,23.3626679 C21.8914553,23.3626679 22.6595806,22.1589936 22.6573881,21.5220449 C22.6571286,21.4466652 22.6578594,21.0186818 22.6595806,20.2380945 L22.6627789,20.2380945 C22.6627558,20.2359054 22.6627443,20.2337135 22.6627443,20.2315189 C22.6627443,19.8931652 22.937151,19.6188753 23.2756489,19.6188753 C23.6141468,19.6188753 23.8885535,19.8931652 23.8885535,20.2315189 C23.8885535,20.2532034 23.8874264,20.2746248 23.8852276,20.2957277 C23.8851787,21.0657357 23.8851799,21.4627236 23.8852313,21.4866914 C23.8880719,22.8114899 22.5292208,24.5916296 20.8638962,24.5916296 L16.4865505,24.5916296 L12.6339339,27.7790595 C12.4737534,27.9109338 12.2749087,27.9810797 12.076064,27.9810797 C11.9462626,27.9810797 11.8164611,27.9530213 11.6977067,27.8940988 C11.3883926,27.7453894 11.1923096,27.4311358 11.1923096,27.0832121 L11.1923096,24.5916296 L10.0213351,24.5916296 C8.35601056,24.5916296 7,23.2139641 7,21.5220449 L7,12.5882626 C7,10.8935376 8.35601056,9.51867788 10.0213351,9.51867788 L12.736118,9.51867788 C12.7820123,9.51867788 12.8302431,9.51796297 12.8799672,9.51726843 C12.8855084,9.51719103 12.8909877,9.51728004 12.8964048,9.51753163 C12.8987392,9.51750547 12.9010767,9.51749236 12.9034172,9.51749236 C13.2419151,9.51749236 13.5163218,9.79178227 13.5163218,10.130136 C13.5163218,10.4684898 13.2419151,10.7427797 12.9034172,10.7427797 C12.8857531,10.7427797 12.8682635,10.7420328 12.8509784,10.7405688 Z" id="Combined-Shape" fill="#9496AB" fill-rule="nonzero"></path>
                <rect id="Rectangle" fill="#D8D8D8" opacity="0" x="0" y="0" width="40" height="30"></rect>
            </g>
        </g>
    </g>
</svg>