<?xml version="1.0" encoding="UTF-8" standalone="no"?>
<svg width="40px" height="30px" viewBox="0 0 40 30" version="1.1" xmlns="http://www.w3.org/2000/svg" xmlns:xlink="http://www.w3.org/1999/xlink">
    <!-- Generator: Sketch 44.1 (41455) - http://www.bohemiancoding.com/sketch -->
    <title>group_6_slice</title>
    <desc>Created with Sketch.</desc>
    <defs></defs>
    <g id="Symbols" stroke="none" stroke-width="1" fill="none" fill-rule="evenodd">
        <g id="Artboard" transform="translate(-5.000000, 0.000000)">
            <g id="Group-6" transform="translate(5.000000, 0.000000)">
                <rect id="Rectangle" fill="#D8D8D8" opacity="0" x="0" y="0" width="40" height="30"></rect>
                <g id="Group-2" transform="translate(10.000000, 12.000000)" fill="#F6A623" opacity="0.300000012">
                    <path d="M2.70996094,4 C3.81453044,4 4.70996094,3.1045695 4.70996094,2 C4.70996094,0.8954305 3.81453044,0 2.70996094,0 C1.60539144,0 0.709960938,0.8954305 0.709960938,2 C0.709960938,3.1045695 1.60539144,4 2.70996094,4 Z" id="Oval"></path>
                    <path d="M10.7099609,4 C11.8145304,4 12.7099609,3.1045695 12.7099609,2 C12.7099609,0.8954305 11.8145304,0 10.7099609,0 C9.60539144,0 8.70996094,0.8954305 8.70996094,2 C8.70996094,3.1045695 9.60539144,4 10.7099609,4 Z" id="Oval-Copy"></path>
                    <path d="M18.7099609,4 C19.8145304,4 20.7099609,3.1045695 20.7099609,2 C20.7099609,0.8954305 19.8145304,0 18.7099609,0 C17.6053914,0 16.7099609,0.8954305 16.7099609,2 C16.7099609,3.1045695 17.6053914,4 18.7099609,4 Z" id="Oval-Copy-2"></path>
                </g>
                <g id="Group-2" transform="translate(9.000000, 12.000000)" stroke="#2D8DFF">
                    <path d="M2.70996094,4 C3.81453044,4 4.70996094,3.1045695 4.70996094,2 C4.70996094,0.8954305 3.81453044,0 2.70996094,0 C1.60539144,0 0.709960938,0.8954305 0.709960938,2 C0.709960938,3.1045695 1.60539144,4 2.70996094,4 Z" id="Oval"></path>
                    <path d="M10.7099609,4 C11.8145304,4 12.7099609,3.1045695 12.7099609,2 C12.7099609,0.8954305 11.8145304,0 10.7099609,0 C9.60539144,0 8.70996094,0.8954305 8.70996094,2 C8.70996094,3.1045695 9.60539144,4 10.7099609,4 Z" id="Oval-Copy"></path>
                    <path d="M18.7099609,4 C19.8145304,4 20.7099609,3.1045695 20.7099609,2 C20.7099609,0.8954305 19.8145304,0 18.7099609,0 C17.6053914,0 16.7099609,0.8954305 16.7099609,2 C16.7099609,3.1045695 17.6053914,4 18.7099609,4 Z" id="Oval-Copy-2"></path>
                </g>
                <g id="Group-3" transform="translate(6.000000, 4.000000)">
                    <circle id="Oval-2" fill="#F8E81C" cx="23.75" cy="0.75" r="1"></circle>
                    <circle id="Oval-2-Copy" fill="#50E3C2" cx="0.5" cy="3.5" r="1"></circle>
                    <polygon id="Star" fill="#F6A623" transform="translate(7.730873, 18.204496) rotate(38.000000) translate(-7.730873, -18.204496) " points="7.73087305 19.329496 6.43183495 19.329496 7.081354 18.204496 7.73087305 17.079496 8.38039211 18.204496 9.02991116 19.329496"></polygon>
                    <rect id="Rectangle-2" fill="#BD0FE1" x="19" y="15" width="1" height="1"></rect>
                </g>
            </g>
        </g>
    </g>
</svg>