<?xml version="1.0" encoding="UTF-8" standalone="no"?>
<svg width="40px" height="30px" viewBox="0 0 40 30" version="1.1" xmlns="http://www.w3.org/2000/svg" xmlns:xlink="http://www.w3.org/1999/xlink">
    <!-- Generator: Sketch 44.1 (41455) - http://www.bohemiancoding.com/sketch -->
    <title>子备课_slice</title>
    <desc>Created with Sketch.</desc>
    <defs></defs>
    <g id="Symbols" stroke="none" stroke-width="1" fill="none" fill-rule="evenodd">
        <g id="Artboard" transform="translate(-3.000000, 0.000000)">
            <g id="电子备课" transform="translate(3.000000, 0.000000)">
                <rect id="Rectangle" fill="#D8D8D8" opacity="0" x="0" y="0" width="40" height="30"></rect>
                <path d="M21.1871597,24.9859303 C21.005163,24.9859303 20.8334924,24.9291148 20.6895731,24.820769 C19.8079866,24.6463587 16.7321143,24.0398865 13.3083832,24.0398865 C10.8798252,24.0398865 8.79525378,24.3418013 7.11081681,24.9377032 C7.02110924,24.9687535 6.92752941,24.9852697 6.8333042,24.9852697 C6.3873479,24.9852697 6.02529076,24.6344671 6.02529076,24.2017445 L6.02529076,5.84505806 C6.02529076,5.51539613 6.2395563,5.22008774 6.55837311,5.10843871 C7.08242017,4.92411871 9.89304202,4.00516129 13.7820908,4.00516129 C16.2442084,4.00516129 18.6688941,4.36785548 20.9896739,5.08267355 C22.2029849,4.68034065 24.7954689,4.00516129 28.1359462,4.00516129 C30.623879,4.00516129 33.0717983,4.37512258 35.4138756,5.10447484 C35.7481815,5.20885677 35.9747092,5.50878968 35.9747092,5.85034323 L35.9747092,24.0603665 C35.9747092,24.4924284 35.6126521,24.8452129 35.1666958,24.8452129 C35.107321,24.8452129 35.0466555,24.8386065 34.9905076,24.8260542 C34.1398992,24.6417342 31.0969412,24.0405471 27.6609479,24.0405471 C25.2343261,24.0405471 23.1497546,24.3424619 21.465963,24.9383639 C21.3756101,24.9687535 21.2820303,24.9859303 21.1871597,24.9859303 Z M7.30443025,23.5648826 C9.00371092,23.0555252 11.0230992,22.7958916 13.3083832,22.7958916 C16.2855126,22.7958916 18.9664134,23.2279535 20.3417143,23.4955148 L20.3417143,6.18859355 C18.2119664,5.56494452 16.0047731,5.24849548 13.7814454,5.24849548 C10.6094118,5.24849548 8.22280336,5.88469677 7.30378487,6.17405935 L7.30378487,23.5648826 L7.30443025,23.5648826 Z M21.6582857,23.5648826 C23.3588571,23.0555252 25.3782454,22.7958916 27.6609479,22.7958916 C30.6406588,22.7958916 33.3209143,23.2279535 34.6955697,23.4955148 L34.6955697,6.18859355 C32.5664672,5.56494452 30.3592739,5.24915613 28.1359462,5.24915613 C24.9671395,5.24915613 22.578595,5.88535742 21.6582857,6.17405935 L21.6582857,23.5648826 Z M24.3236975,18.392031 C24.0326319,18.392031 23.7789983,18.2011045 23.7073613,17.9289187 C23.6621849,17.7703639 23.6847731,17.6012387 23.7706084,17.4552361 C23.8628975,17.3052697 24.0152067,17.1956026 24.1926857,17.161249 C24.7425479,17.0476181 25.6221983,16.8943484 26.6870723,16.7959123 C27.3498756,16.7364542 27.9926723,16.7054039 28.598037,16.7054039 C29.9229983,16.7054039 31.1343731,16.8500852 32.1966655,17.1335019 C32.3741445,17.1810684 32.5219361,17.2986632 32.6013176,17.4572181 C32.6794084,17.6071845 32.6910252,17.7769703 32.6355227,17.9375071 C32.5458151,18.1878916 32.3025076,18.3570168 32.030158,18.3570168 C31.9733647,18.3570168 31.9165714,18.3477677 31.8623597,18.3338942 C30.9130084,18.0795458 29.8139294,17.9533626 28.5915832,17.9533626 C26.8258286,17.9533626 25.2414252,18.2189419 24.4534185,18.3781574 C24.4095328,18.3874065 24.3656471,18.392031 24.3236975,18.392031 Z M9.94273613,18.392031 C9.6542521,18.392031 9.39997311,18.2011045 9.32510924,17.93024 C9.28122353,17.7690426 9.30445714,17.5999174 9.39029244,17.4552361 C9.48129076,17.3052697 9.63424538,17.1956026 9.81172437,17.161249 C10.3596504,17.0489394 11.2373647,16.8943484 12.3074017,16.7959123 C12.9695597,16.7364542 13.6117109,16.7054039 14.2170756,16.7054039 C15.5426824,16.7054039 16.7534118,16.8500852 17.8176403,17.1335019 C17.9938286,17.1810684 18.1403294,17.2986632 18.2222924,17.4558968 C18.2990924,17.6071845 18.3100639,17.7769703 18.2532706,17.9375071 C18.1648538,18.1878916 17.9215462,18.3570168 17.6504874,18.3570168 C17.5930487,18.3570168 17.5362555,18.3477677 17.4826891,18.3338942 C16.5333378,18.0795458 15.4336134,17.9533626 14.2119126,17.9533626 C12.4448672,17.9533626 10.8604639,18.2189419 10.0731025,18.3781574 C10.0305076,18.3874065 9.98662185,18.392031 9.94273613,18.392031 Z M24.3236975,14.6164439 C24.0326319,14.6164439 23.7789983,14.4268387 23.7073613,14.1539923 C23.6621849,13.9941161 23.6847731,13.8256516 23.7706084,13.681631 C23.8628975,13.5303432 24.0152067,13.4219974 24.1926857,13.3863226 C24.7457748,13.2733523 25.6273613,13.1187613 26.6870723,13.0216465 C27.3498756,12.9615277 27.9913815,12.9304774 28.598037,12.9304774 C29.9217076,12.9304774 31.1330824,13.0751587 32.1966655,13.3598968 C32.3741445,13.4068026 32.5219361,13.5250581 32.6026084,13.6836129 C32.6794084,13.8329187 32.6910252,14.0027045 32.6355227,14.1612594 C32.5458151,14.4123045 32.3025076,14.5814297 32.030158,14.5814297 C31.9746555,14.5814297 31.9191529,14.5741626 31.8636504,14.5596284 C30.9117176,14.3066013 29.8113479,14.1777755 28.5902924,14.1777755 C26.8245378,14.1777755 25.2401345,14.4446761 24.4534185,14.6038916 C24.4095328,14.6118194 24.3656471,14.6164439 24.3236975,14.6164439 Z M9.94273613,14.6164439 C9.6542521,14.6164439 9.39997311,14.4268387 9.32510924,14.1553135 C9.28122353,13.9934555 9.30445714,13.8256516 9.39029244,13.6809703 C9.48129076,13.5303432 9.63424538,13.4226581 9.81172437,13.3863226 C10.3654588,13.2733523 11.2483361,13.1187613 12.3074017,13.0216465 C12.9695597,12.9615277 13.6117109,12.9304774 14.2164303,12.9304774 C15.5413916,12.9304774 16.7527664,13.0751587 17.8176403,13.3598968 C17.9925378,13.4061419 18.1403294,13.5243974 18.2222924,13.6829523 C18.2990924,13.8349006 18.3100639,14.0046865 18.2532706,14.1632413 C18.1648538,14.4129652 17.9215462,14.5820903 17.6504874,14.5820903 C17.5962756,14.5820903 17.5394824,14.5748232 17.4839798,14.560289 C16.5326924,14.3072619 15.4316773,14.1784361 14.2112672,14.1784361 C12.4429311,14.1784361 10.8604639,14.4453368 10.0731025,14.6045523 C10.0305076,14.6118194 9.98662185,14.6164439 9.94273613,14.6164439 Z M24.3249882,10.5323355 C24.0326319,10.5323355 23.7802891,10.3420697 23.7073613,10.0698839 C23.6621849,9.91066839 23.6847731,9.74220387 23.7706084,9.59752258 C23.8628975,9.44557419 24.0152067,9.33722839 24.1926857,9.3008929 C24.7438387,9.18858323 25.6247798,9.03399226 26.6870723,8.93687742 C27.3460034,8.87675871 27.9907361,8.84636903 28.5993277,8.84636903 C29.9242891,8.84636903 31.1356639,8.99038968 32.1966655,9.2744671 C32.3741445,9.32269419 32.5219361,9.44028903 32.6026084,9.59818323 C32.6794084,9.74748903 32.6910252,9.91727484 32.6355227,10.0764903 C32.5458151,10.3275355 32.3025076,10.4966606 32.030158,10.4966606 C31.9746555,10.4966606 31.9191529,10.4893935 31.8636504,10.4741987 C30.9117176,10.2211716 29.8113479,10.0923458 28.5915832,10.0923458 C26.8271193,10.0923458 25.2414252,10.3592465 24.4534185,10.5184619 C24.4095328,10.5283716 24.3656471,10.5323355 24.3249882,10.5323355 Z M9.94338151,10.5323355 C9.6542521,10.5323355 9.39997311,10.3427303 9.32510924,10.0705445 C9.28122353,9.90868645 9.30445714,9.74088258 9.39029244,9.59686194 C9.48129076,9.44557419 9.63424538,9.33788903 9.81172437,9.30155355 C10.3622319,9.18924387 11.2425277,9.0346529 12.3074017,8.93753806 C12.9676235,8.87741935 13.6110655,8.84702968 14.2183664,8.84702968 C15.5426824,8.84702968 16.7534118,8.99105032 17.8176403,9.27512774 C17.9925378,9.32203355 18.1403294,9.44028903 18.2222924,9.59818323 C18.2990924,9.74947097 18.3100639,9.91991742 18.2532706,10.0778116 C18.1648538,10.3281961 17.9215462,10.4973213 17.6504874,10.4973213 C17.5962756,10.4973213 17.5394824,10.4900542 17.4839798,10.4748594 C16.5326924,10.2218323 15.4316773,10.0930065 14.2119126,10.0930065 C12.4455126,10.0930065 10.8611092,10.3599071 10.0731025,10.5191226 C10.0305076,10.5283716 9.98662185,10.5323355 9.94338151,10.5323355 Z" id="Shape" fill="#9496AB" fill-rule="nonzero"></path>
            </g>
        </g>
    </g>
</svg>