<?xml version="1.0" encoding="UTF-8" standalone="no"?>
<svg width="40px" height="30px" viewBox="0 0 40 30" version="1.1" xmlns="http://www.w3.org/2000/svg" xmlns:xlink="http://www.w3.org/1999/xlink">
    <!-- Generator: Sketch 44.1 (41455) - http://www.bohemiancoding.com/sketch -->
    <title>group_4_slice</title>
    <desc>Created with Sketch.</desc>
    <defs></defs>
    <g id="Symbols" stroke="none" stroke-width="1" fill="none" fill-rule="evenodd">
        <g id="Artboard" transform="translate(-3.000000, 0.000000)">
            <g id="Group-4" transform="translate(3.000000, 0.000000)">
                <rect id="Rectangle" fill="#D8D8D8" opacity="0" x="0" y="0" width="40" height="30"></rect>
                <g id="电子备课" transform="translate(6.000000, 4.000000)" fill-rule="nonzero">
                    <path d="M17.1871597,21.9859303 C17.005163,21.9859303 16.8334924,21.9291148 16.6895731,21.820769 C15.8079866,21.6463587 12.7321143,21.0398865 9.30838319,21.0398865 C6.87982521,21.0398865 4.79525378,21.3418013 3.11081681,21.9377032 C3.02110924,21.9687535 2.92752941,21.9852697 2.8333042,21.9852697 C2.3873479,21.9852697 2.02529076,21.6344671 2.02529076,21.2017445 L2.02529076,2.84505806 C2.02529076,2.51539613 2.2395563,2.22008774 2.55837311,2.10843871 C3.08242017,1.92411871 5.89304202,1.00516129 9.78209076,1.00516129 C12.2442084,1.00516129 14.6688941,1.36785548 16.9896739,2.08267355 C18.2029849,1.68034065 20.7954689,1.00516129 24.1359462,1.00516129 C26.623879,1.00516129 29.0717983,1.37512258 31.4138756,2.10447484 C31.7481815,2.20885677 31.9747092,2.50878968 31.9747092,2.85034323 L31.9747092,21.0603665 C31.9747092,21.4924284 31.6126521,21.8452129 31.1666958,21.8452129 C31.107321,21.8452129 31.0466555,21.8386065 30.9905076,21.8260542 C30.1398992,21.6417342 27.0969412,21.0405471 23.6609479,21.0405471 C21.2343261,21.0405471 19.1497546,21.3424619 17.465963,21.9383639 C17.3756101,21.9687535 17.2820303,21.9859303 17.1871597,21.9859303 Z M20.3236975,15.392031 C20.0326319,15.392031 19.7789983,15.2011045 19.7073613,14.9289187 C19.6621849,14.7703639 19.6847731,14.6012387 19.7706084,14.4552361 C19.8628975,14.3052697 20.0152067,14.1956026 20.1926857,14.161249 C20.7425479,14.0476181 21.6221983,13.8943484 22.6870723,13.7959123 C23.3498756,13.7364542 23.9926723,13.7054039 24.598037,13.7054039 C25.9229983,13.7054039 27.1343731,13.8500852 28.1966655,14.1335019 C28.3741445,14.1810684 28.5219361,14.2986632 28.6013176,14.4572181 C28.6794084,14.6071845 28.6910252,14.7769703 28.6355227,14.9375071 C28.5458151,15.1878916 28.3025076,15.3570168 28.030158,15.3570168 C27.9733647,15.3570168 27.9165714,15.3477677 27.8623597,15.3338942 C26.9130084,15.0795458 25.8139294,14.9533626 24.5915832,14.9533626 C22.8258286,14.9533626 21.2414252,15.2189419 20.4534185,15.3781574 C20.4095328,15.3874065 20.3656471,15.392031 20.3236975,15.392031 Z M5.94273613,15.392031 C5.6542521,15.392031 5.39997311,15.2011045 5.32510924,14.93024 C5.28122353,14.7690426 5.30445714,14.5999174 5.39029244,14.4552361 C5.48129076,14.3052697 5.63424538,14.1956026 5.81172437,14.161249 C6.35965042,14.0489394 7.23736471,13.8943484 8.30740168,13.7959123 C8.96955966,13.7364542 9.61171092,13.7054039 10.2170756,13.7054039 C11.5426824,13.7054039 12.7534118,13.8500852 13.8176403,14.1335019 C13.9938286,14.1810684 14.1403294,14.2986632 14.2222924,14.4558968 C14.2990924,14.6071845 14.3100639,14.7769703 14.2532706,14.9375071 C14.1648538,15.1878916 13.9215462,15.3570168 13.6504874,15.3570168 C13.5930487,15.3570168 13.5362555,15.3477677 13.4826891,15.3338942 C12.5333378,15.0795458 11.4336134,14.9533626 10.2119126,14.9533626 C8.44486723,14.9533626 6.86046387,15.2189419 6.07310252,15.3781574 C6.03050756,15.3874065 5.98662185,15.392031 5.94273613,15.392031 Z M20.3236975,11.6164439 C20.0326319,11.6164439 19.7789983,11.4268387 19.7073613,11.1539923 C19.6621849,10.9941161 19.6847731,10.8256516 19.7706084,10.681631 C19.8628975,10.5303432 20.0152067,10.4219974 20.1926857,10.3863226 C20.7457748,10.2733523 21.6273613,10.1187613 22.6870723,10.0216465 C23.3498756,9.96152774 23.9913815,9.93047742 24.598037,9.93047742 C25.9217076,9.93047742 27.1330824,10.0751587 28.1966655,10.3598968 C28.3741445,10.4068026 28.5219361,10.5250581 28.6026084,10.6836129 C28.6794084,10.8329187 28.6910252,11.0027045 28.6355227,11.1612594 C28.5458151,11.4123045 28.3025076,11.5814297 28.030158,11.5814297 C27.9746555,11.5814297 27.9191529,11.5741626 27.8636504,11.5596284 C26.9117176,11.3066013 25.8113479,11.1777755 24.5902924,11.1777755 C22.8245378,11.1777755 21.2401345,11.4446761 20.4534185,11.6038916 C20.4095328,11.6118194 20.3656471,11.6164439 20.3236975,11.6164439 Z M5.94273613,11.6164439 C5.6542521,11.6164439 5.39997311,11.4268387 5.32510924,11.1553135 C5.28122353,10.9934555 5.30445714,10.8256516 5.39029244,10.6809703 C5.48129076,10.5303432 5.63424538,10.4226581 5.81172437,10.3863226 C6.36545882,10.2733523 7.24833613,10.1187613 8.30740168,10.0216465 C8.96955966,9.96152774 9.61171092,9.93047742 10.2164303,9.93047742 C11.5413916,9.93047742 12.7527664,10.0751587 13.8176403,10.3598968 C13.9925378,10.4061419 14.1403294,10.5243974 14.2222924,10.6829523 C14.2990924,10.8349006 14.3100639,11.0046865 14.2532706,11.1632413 C14.1648538,11.4129652 13.9215462,11.5820903 13.6504874,11.5820903 C13.5962756,11.5820903 13.5394824,11.5748232 13.4839798,11.560289 C12.5326924,11.3072619 11.4316773,11.1784361 10.2112672,11.1784361 C8.44293109,11.1784361 6.86046387,11.4453368 6.07310252,11.6045523 C6.03050756,11.6118194 5.98662185,11.6164439 5.94273613,11.6164439 Z M20.3249882,7.53233548 C20.0326319,7.53233548 19.7802891,7.34206968 19.7073613,7.06988387 C19.6621849,6.91066839 19.6847731,6.74220387 19.7706084,6.59752258 C19.8628975,6.44557419 20.0152067,6.33722839 20.1926857,6.3008929 C20.7438387,6.18858323 21.6247798,6.03399226 22.6870723,5.93687742 C23.3460034,5.87675871 23.9907361,5.84636903 24.5993277,5.84636903 C25.9242891,5.84636903 27.1356639,5.99038968 28.1966655,6.2744671 C28.3741445,6.32269419 28.5219361,6.44028903 28.6026084,6.59818323 C28.6794084,6.74748903 28.6910252,6.91727484 28.6355227,7.07649032 C28.5458151,7.32753548 28.3025076,7.49666065 28.030158,7.49666065 C27.9746555,7.49666065 27.9191529,7.48939355 27.8636504,7.47419871 C26.9117176,7.22117161 25.8113479,7.09234581 24.5915832,7.09234581 C22.8271193,7.09234581 21.2414252,7.35924645 20.4534185,7.51846194 C20.4095328,7.52837161 20.3656471,7.53233548 20.3249882,7.53233548 Z M5.94338151,7.53233548 C5.6542521,7.53233548 5.39997311,7.34273032 5.32510924,7.07054452 C5.28122353,6.90868645 5.30445714,6.74088258 5.39029244,6.59686194 C5.48129076,6.44557419 5.63424538,6.33788903 5.81172437,6.30155355 C6.36223193,6.18924387 7.24252773,6.0346529 8.30740168,5.93753806 C8.96762353,5.87741935 9.61106555,5.84702968 10.2183664,5.84702968 C11.5426824,5.84702968 12.7534118,5.99105032 13.8176403,6.27512774 C13.9925378,6.32203355 14.1403294,6.44028903 14.2222924,6.59818323 C14.2990924,6.74947097 14.3100639,6.91991742 14.2532706,7.07781161 C14.1648538,7.32819613 13.9215462,7.49732129 13.6504874,7.49732129 C13.5962756,7.49732129 13.5394824,7.49005419 13.4839798,7.47485935 C12.5326924,7.22183226 11.4316773,7.09300645 10.2119126,7.09300645 C8.44551261,7.09300645 6.86110924,7.3599071 6.07310252,7.51912258 C6.03050756,7.52837161 5.98662185,7.53233548 5.94338151,7.53233548 Z" id="Shape" fill="#7ED321" opacity="0.300000012"></path>
                    <path d="M15.1871597,20.9859303 C15.005163,20.9859303 14.8334924,20.9291148 14.6895731,20.820769 C13.8079866,20.6463587 10.7321143,20.0398865 7.30838319,20.0398865 C4.87982521,20.0398865 2.79525378,20.3418013 1.11081681,20.9377032 C1.02110924,20.9687535 0.927529412,20.9852697 0.833304202,20.9852697 C0.387347899,20.9852697 0.0252907563,20.6344671 0.0252907563,20.2017445 L0.0252907563,1.84505806 C0.0252907563,1.51539613 0.239556303,1.22008774 0.558373109,1.10843871 C1.08242017,0.92411871 3.89304202,0.00516129032 7.78209076,0.00516129032 C10.2442084,0.00516129032 12.6688941,0.367855484 14.9896739,1.08267355 C16.2029849,0.680340645 18.7954689,0.00516129032 22.1359462,0.00516129032 C24.623879,0.00516129032 27.0717983,0.375122581 29.4138756,1.10447484 C29.7481815,1.20885677 29.9747092,1.50878968 29.9747092,1.85034323 L29.9747092,20.0603665 C29.9747092,20.4924284 29.6126521,20.8452129 29.1666958,20.8452129 C29.107321,20.8452129 29.0466555,20.8386065 28.9905076,20.8260542 C28.1398992,20.6417342 25.0969412,20.0405471 21.6609479,20.0405471 C19.2343261,20.0405471 17.1497546,20.3424619 15.465963,20.9383639 C15.3756101,20.9687535 15.2820303,20.9859303 15.1871597,20.9859303 Z M1.30443025,19.5648826 C3.00371092,19.0555252 5.02309916,18.7958916 7.30838319,18.7958916 C10.2855126,18.7958916 12.9664134,19.2279535 14.3417143,19.4955148 L14.3417143,2.18859355 C12.2119664,1.56494452 10.0047731,1.24849548 7.78144538,1.24849548 C4.60941176,1.24849548 2.22280336,1.88469677 1.30378487,2.17405935 L1.30378487,19.5648826 L1.30443025,19.5648826 Z M15.6582857,19.5648826 C17.3588571,19.0555252 19.3782454,18.7958916 21.6609479,18.7958916 C24.6406588,18.7958916 27.3209143,19.2279535 28.6955697,19.4955148 L28.6955697,2.18859355 C26.5664672,1.56494452 24.3592739,1.24915613 22.1359462,1.24915613 C18.9671395,1.24915613 16.578595,1.88535742 15.6582857,2.17405935 L15.6582857,19.5648826 Z M18.3236975,14.392031 C18.0326319,14.392031 17.7789983,14.2011045 17.7073613,13.9289187 C17.6621849,13.7703639 17.6847731,13.6012387 17.7706084,13.4552361 C17.8628975,13.3052697 18.0152067,13.1956026 18.1926857,13.161249 C18.7425479,13.0476181 19.6221983,12.8943484 20.6870723,12.7959123 C21.3498756,12.7364542 21.9926723,12.7054039 22.598037,12.7054039 C23.9229983,12.7054039 25.1343731,12.8500852 26.1966655,13.1335019 C26.3741445,13.1810684 26.5219361,13.2986632 26.6013176,13.4572181 C26.6794084,13.6071845 26.6910252,13.7769703 26.6355227,13.9375071 C26.5458151,14.1878916 26.3025076,14.3570168 26.030158,14.3570168 C25.9733647,14.3570168 25.9165714,14.3477677 25.8623597,14.3338942 C24.9130084,14.0795458 23.8139294,13.9533626 22.5915832,13.9533626 C20.8258286,13.9533626 19.2414252,14.2189419 18.4534185,14.3781574 C18.4095328,14.3874065 18.3656471,14.392031 18.3236975,14.392031 Z M3.94273613,14.392031 C3.6542521,14.392031 3.39997311,14.2011045 3.32510924,13.93024 C3.28122353,13.7690426 3.30445714,13.5999174 3.39029244,13.4552361 C3.48129076,13.3052697 3.63424538,13.1956026 3.81172437,13.161249 C4.35965042,13.0489394 5.23736471,12.8943484 6.30740168,12.7959123 C6.96955966,12.7364542 7.61171092,12.7054039 8.21707563,12.7054039 C9.54268235,12.7054039 10.7534118,12.8500852 11.8176403,13.1335019 C11.9938286,13.1810684 12.1403294,13.2986632 12.2222924,13.4558968 C12.2990924,13.6071845 12.3100639,13.7769703 12.2532706,13.9375071 C12.1648538,14.1878916 11.9215462,14.3570168 11.6504874,14.3570168 C11.5930487,14.3570168 11.5362555,14.3477677 11.4826891,14.3338942 C10.5333378,14.0795458 9.43361345,13.9533626 8.21191261,13.9533626 C6.44486723,13.9533626 4.86046387,14.2189419 4.07310252,14.3781574 C4.03050756,14.3874065 3.98662185,14.392031 3.94273613,14.392031 Z M18.3236975,10.6164439 C18.0326319,10.6164439 17.7789983,10.4268387 17.7073613,10.1539923 C17.6621849,9.99411613 17.6847731,9.82565161 17.7706084,9.68163097 C17.8628975,9.53034323 18.0152067,9.42199742 18.1926857,9.38632258 C18.7457748,9.27335226 19.6273613,9.11876129 20.6870723,9.02164645 C21.3498756,8.96152774 21.9913815,8.93047742 22.598037,8.93047742 C23.9217076,8.93047742 25.1330824,9.07515871 26.1966655,9.35989677 C26.3741445,9.40680258 26.5219361,9.52505806 26.6026084,9.6836129 C26.6794084,9.83291871 26.6910252,10.0027045 26.6355227,10.1612594 C26.5458151,10.4123045 26.3025076,10.5814297 26.030158,10.5814297 C25.9746555,10.5814297 25.9191529,10.5741626 25.8636504,10.5596284 C24.9117176,10.3066013 23.8113479,10.1777755 22.5902924,10.1777755 C20.8245378,10.1777755 19.2401345,10.4446761 18.4534185,10.6038916 C18.4095328,10.6118194 18.3656471,10.6164439 18.3236975,10.6164439 Z M3.94273613,10.6164439 C3.6542521,10.6164439 3.39997311,10.4268387 3.32510924,10.1553135 C3.28122353,9.99345548 3.30445714,9.82565161 3.39029244,9.68097032 C3.48129076,9.53034323 3.63424538,9.42265806 3.81172437,9.38632258 C4.36545882,9.27335226 5.24833613,9.11876129 6.30740168,9.02164645 C6.96955966,8.96152774 7.61171092,8.93047742 8.21643025,8.93047742 C9.5413916,8.93047742 10.7527664,9.07515871 11.8176403,9.35989677 C11.9925378,9.40614194 12.1403294,9.52439742 12.2222924,9.68295226 C12.2990924,9.83490065 12.3100639,10.0046865 12.2532706,10.1632413 C12.1648538,10.4129652 11.9215462,10.5820903 11.6504874,10.5820903 C11.5962756,10.5820903 11.5394824,10.5748232 11.4839798,10.560289 C10.5326924,10.3072619 9.43167731,10.1784361 8.21126723,10.1784361 C6.44293109,10.1784361 4.86046387,10.4453368 4.07310252,10.6045523 C4.03050756,10.6118194 3.98662185,10.6164439 3.94273613,10.6164439 Z M18.3249882,6.53233548 C18.0326319,6.53233548 17.7802891,6.34206968 17.7073613,6.06988387 C17.6621849,5.91066839 17.6847731,5.74220387 17.7706084,5.59752258 C17.8628975,5.44557419 18.0152067,5.33722839 18.1926857,5.3008929 C18.7438387,5.18858323 19.6247798,5.03399226 20.6870723,4.93687742 C21.3460034,4.87675871 21.9907361,4.84636903 22.5993277,4.84636903 C23.9242891,4.84636903 25.1356639,4.99038968 26.1966655,5.2744671 C26.3741445,5.32269419 26.5219361,5.44028903 26.6026084,5.59818323 C26.6794084,5.74748903 26.6910252,5.91727484 26.6355227,6.07649032 C26.5458151,6.32753548 26.3025076,6.49666065 26.030158,6.49666065 C25.9746555,6.49666065 25.9191529,6.48939355 25.8636504,6.47419871 C24.9117176,6.22117161 23.8113479,6.09234581 22.5915832,6.09234581 C20.8271193,6.09234581 19.2414252,6.35924645 18.4534185,6.51846194 C18.4095328,6.52837161 18.3656471,6.53233548 18.3249882,6.53233548 Z M3.94338151,6.53233548 C3.6542521,6.53233548 3.39997311,6.34273032 3.32510924,6.07054452 C3.28122353,5.90868645 3.30445714,5.74088258 3.39029244,5.59686194 C3.48129076,5.44557419 3.63424538,5.33788903 3.81172437,5.30155355 C4.36223193,5.18924387 5.24252773,5.0346529 6.30740168,4.93753806 C6.96762353,4.87741935 7.61106555,4.84702968 8.21836639,4.84702968 C9.54268235,4.84702968 10.7534118,4.99105032 11.8176403,5.27512774 C11.9925378,5.32203355 12.1403294,5.44028903 12.2222924,5.59818323 C12.2990924,5.74947097 12.3100639,5.91991742 12.2532706,6.07781161 C12.1648538,6.32819613 11.9215462,6.49732129 11.6504874,6.49732129 C11.5962756,6.49732129 11.5394824,6.49005419 11.4839798,6.47485935 C10.5326924,6.22183226 9.43167731,6.09300645 8.21191261,6.09300645 C6.44551261,6.09300645 4.86110924,6.3599071 4.07310252,6.51912258 C4.03050756,6.52837161 3.98662185,6.53233548 3.94338151,6.53233548 Z" id="Shape" fill="#2D8DFF"></path>
                </g>
                <g id="Group-3" transform="translate(0.000000, 1.000000)">
                    <circle id="Oval-2" fill="#F8E81C" cx="35.75" cy="0.75" r="1"></circle>
                    <circle id="Oval-2-Copy" fill="#50E3C2" cx="3.5" cy="10.5" r="1"></circle>
                    <polygon id="Star" fill="#F6A623" transform="translate(2.500000, 18.500000) rotate(38.000000) translate(-2.500000, -18.500000) " points="2.5 19.25 1.20096189 19.25 1.85048095 18.125 2.5 17 3.14951905 18.125 3.79903811 19.25"></polygon>
                    <rect id="Rectangle-2" fill="#BD0FE1" x="39" y="18" width="1" height="1"></rect>
                </g>
            </g>
        </g>
    </g>
</svg>