<?xml version="1.0" encoding="UTF-8" standalone="no"?>
<svg width="60px" height="60px" viewBox="0 0 60 60" version="1.1" xmlns="http://www.w3.org/2000/svg" xmlns:xlink="http://www.w3.org/1999/xlink">
    <!-- Generator: Sketch 44.1 (41455) - http://www.bohemiancoding.com/sketch -->
    <title>group_13_slice</title>
    <desc>Created with Sketch.</desc>
    <defs>
        <linearGradient x1="50%" y1="0%" x2="50%" y2="100%" id="linearGradient-1">
            <stop stop-color="#FBDA61" offset="0%"></stop>
            <stop stop-color="#F76B1C" offset="100%"></stop>
        </linearGradient>
        <linearGradient x1="100%" y1="100%" x2="7.81023436%" y2="17.155998%" id="linearGradient-2">
            <stop stop-color="#3023AE" offset="0%"></stop>
            <stop stop-color="#C96DD8" offset="100%"></stop>
        </linearGradient>
        <linearGradient x1="74.4621462%" y1="263.014084%" x2="-29.033029%" y2="0%" id="linearGradient-3">
            <stop stop-color="#3023AE" offset="0%"></stop>
            <stop stop-color="#C96DD8" offset="100%"></stop>
        </linearGradient>
    </defs>
    <g id="设计图" stroke="none" stroke-width="1" fill="none" fill-rule="evenodd">
        <g id="Artboard">
            <g id="Group-13">
                <circle id="Oval" fill="#FFFFFF" opacity="0.200000003" cx="30" cy="30" r="30"></circle>
                <circle id="Oval" fill="url(#linearGradient-1)" opacity="0.200000003" cx="30" cy="30" r="30"></circle>
                <g id="notebook" transform="translate(17.000000, 15.000000)">
                    <rect id="Rectangle-path" fill="#E8655A" x="6.923475" y="0.617517578" width="19.4348455" height="29.7649648"></rect>
                    <rect id="Rectangle-path" fill="#FFBA57" x="2.60470227" y="0.617517578" width="4.31907955" height="29.7649648"></rect>
                    <rect id="Rectangle-path" fill="#E6E6E6" x="11.5185068" y="5.46017773" width="10.2447205" height="6.39205469"></rect>
                    <path d="M26.3583818,31 C26.7039818,31 26.9842295,30.7234824 26.9842295,30.3824824 L26.9842295,0.617517578 C26.9842295,0.276517578 26.7039818,0 26.3583818,0 L2.60470227,0 C2.25910227,0 1.97885455,0.276517578 1.97885455,0.617517578 L1.97885455,2.58262695 L0.641618182,2.58262695 C0.296018182,2.58262695 0.0157704545,2.85914453 0.0157704545,3.20014453 C0.0157704545,3.54114453 0.296018182,3.81766211 0.641618182,3.81766211 L1.97885455,3.81766211 L1.97885455,8.65178516 L0.641618182,8.65178516 C0.296018182,8.65178516 0.0157704545,8.92830273 0.0157704545,9.26930273 C0.0157704545,9.61030273 0.296018182,9.88682031 0.641618182,9.88682031 L1.97885455,9.88682031 L1.97885455,14.7208828 L0.641618182,14.7208828 C0.296018182,14.7208828 0.0157704545,14.9974004 0.0157704545,15.3384004 C0.0157704545,15.6794004 0.296018182,15.955918 0.641618182,15.955918 L1.97885455,15.955918 L1.97885455,20.790041 L0.641618182,20.790041 C0.296018182,20.790041 0.0157704545,21.0665586 0.0157704545,21.4075586 C0.0157704545,21.7485586 0.296018182,22.0250762 0.641618182,22.0250762 L1.97885455,22.0250762 L1.97885455,26.8591992 L0.641618182,26.8591992 C0.296018182,26.8591992 0.0157704545,27.1357168 0.0157704545,27.4767168 C0.0157704545,27.8177168 0.296018182,28.0942344 0.641618182,28.0942344 L1.97885455,28.0942344 L1.97885455,30.3822402 C1.97885455,30.7232402 2.25910227,30.9997578 2.60470227,30.9997578 L26.3583818,30.9997578 L26.3583818,31 Z M3.23055,28.0945371 L4.56784773,28.0945371 C4.91344773,28.0945371 5.19369545,27.8180195 5.19369545,27.4770195 C5.19369545,27.1360195 4.91344773,26.859502 4.56784773,26.859502 L3.23055,26.859502 L3.23055,22.0253789 L4.56784773,22.0253789 C4.91344773,22.0253789 5.19369545,21.7488613 5.19369545,21.4078613 C5.19369545,21.0668613 4.91344773,20.7903438 4.56784773,20.7903438 L3.23055,20.7903438 L3.23055,15.9562207 L4.56784773,15.9562207 C4.91344773,15.9562207 5.19369545,15.6797031 5.19369545,15.3387031 C5.19369545,14.9977031 4.91344773,14.7211855 4.56784773,14.7211855 L3.23055,14.7211855 L3.23055,9.88712305 L4.56784773,9.88712305 C4.91344773,9.88712305 5.19369545,9.61060547 5.19369545,9.26960547 C5.19369545,8.92860547 4.91344773,8.65208789 4.56784773,8.65208789 L3.23055,8.65208789 L3.23055,3.81772266 L4.56784773,3.81772266 C4.91344773,3.81772266 5.19369545,3.54120508 5.19369545,3.20020508 C5.19369545,2.85920508 4.91344773,2.5826875 4.56784773,2.5826875 L3.23055,2.5826875 L3.23055,1.23503516 L6.29768864,1.23503516 L6.29768864,29.7649043 L3.23055,29.7649043 L3.23055,28.0945371 L3.23055,28.0945371 Z M25.7324727,29.7649648 L7.54944545,29.7649648 L7.54944545,1.23503516 L25.7324727,1.23503516 L25.7324727,29.7649648 L25.7324727,29.7649648 Z" id="Shape" fill="url(#linearGradient-2)"></path>
                    <path d="M11.5187523,12.4695078 L21.7632273,12.4695078 C22.1088273,12.4695078 22.389075,12.1929902 22.389075,11.8519902 L22.389075,5.45993555 C22.389075,5.11893555 22.1088273,4.84241797 21.7632273,4.84241797 L11.5187523,4.84241797 C11.1731523,4.84241797 10.8929045,5.11893555 10.8929045,5.45993555 L10.8929045,11.8519902 C10.8929045,12.1929902 11.1730909,12.4695078 11.5187523,12.4695078 L11.5187523,12.4695078 Z M12.1446614,6.07745313 L21.1373795,6.07745313 L21.1373795,11.2344727 L12.1446614,11.2344727 L12.1446614,6.07745313 L12.1446614,6.07745313 Z" id="Shape" fill="url(#linearGradient-2)"></path>
                    <path d="M19.5529705,7.10226953 C19.8985705,7.10226953 20.1788182,7.37878711 20.1788182,7.71978711 C20.1788182,8.06078711 19.8985705,8.33730469 19.5529705,8.33730469 L19.0948909,8.33730469 C18.7492909,8.33730469 18.4690432,8.06078711 18.4690432,7.71978711 C18.4690432,7.37878711 18.7492909,7.10226953 19.0948909,7.10226953 L19.5529705,7.10226953 Z M17.0009182,7.10226953 C17.3465182,7.10226953 17.6267659,7.37878711 17.6267659,7.71978711 C17.6267659,8.06078711 17.3465182,8.33730469 17.0009182,8.33730469 L13.8598977,8.33730469 C13.5142977,8.33730469 13.23405,8.06078711 13.23405,7.71978711 C13.23405,7.37878711 13.5142977,7.10226953 13.8598977,7.10226953 L17.0009182,7.10226953 Z" id="Combined-Shape" fill="url(#linearGradient-3)"></path>
                </g>
            </g>
        </g>
    </g>
</svg>