<?xml version="1.0" encoding="UTF-8" standalone="no"?>
<svg width="16px" height="14px" viewBox="0 0 16 14" version="1.1" xmlns="http://www.w3.org/2000/svg" xmlns:xlink="http://www.w3.org/1999/xlink">
    <!-- Generator: Sketch 44.1 (41455) - http://www.bohemiancoding.com/sketch -->
    <title>shape_slice</title>
    <desc>Created with Sketch.</desc>
    <defs></defs>
    <g id="设计图" stroke="none" stroke-width="1" fill="none" fill-rule="evenodd">
        <g id="Artboard" fill-rule="nonzero" fill="#FFFFFF">
            <path d="M7.99989936,13.9361046 C7.91049409,13.936086 7.82484434,13.9002796 7.76219047,13.8367287 C7.16349012,13.2276382 6.31047548,12.6020018 5.40704079,11.9397637 C2.6311202,9.90451492 -0.823609238,7.37148451 0.195761376,3.16470863 C0.646120098,1.30655132 2.41293523,0.00905011854 4.49223391,0.00905011854 C5.94052717,0.00905011854 7.21441337,0.670586208 7.99979872,1.8053357 C8.78518408,0.670686486 10.0590703,0.00905011854 11.5073635,0.00905011854 C13.5867629,0.00905011854 15.3538799,1.3066516 15.8039367,3.16470863 C16.821999,7.36566836 13.382768,9.88897178 10.6193266,11.9160981 C9.7081427,12.5844531 8.84768079,13.2159057 8.23760826,13.8367287 C8.1749156,13.9002225 8.08929098,13.9360185 7.99989936,13.9361046 L7.99989936,13.9361046 Z" id="Shape"></path>
        </g>
    </g>
</svg>