<?xml version="1.0" encoding="UTF-8" standalone="no"?>
<svg width="20px" height="20px" viewBox="0 0 20 20" version="1.1" xmlns="http://www.w3.org/2000/svg" xmlns:xlink="http://www.w3.org/1999/xlink">
    <!-- Generator: Sketch 44.1 (41455) - http://www.bohemiancoding.com/sketch -->
    <title>group_copy8_slice</title>
    <desc>Created with Sketch.</desc>
    <defs></defs>
    <g id="设计图" stroke="none" stroke-width="1" fill="none" fill-rule="evenodd">
        <g id="Artboard" transform="translate(-285.000000, -152.000000)">
            <g id="Group-Copy-8" transform="translate(285.000000, 152.000000)">
                <circle id="Oval-9" stroke="#FECF39" stroke-width="0.5" fill="#FECF39" cx="10" cy="10" r="10"></circle>
                <path d="M9.89265991,15.0260414 C9.48378462,14.6284564 8.90122841,14.2200712 8.28423843,13.7877941 C6.38845646,12.4592819 4.02909005,10.8058419 4.7252571,8.0598616 C5.03282423,6.84694618 6.23944963,6 7.65948194,6 C8.64857661,6 9.51856205,6.43181884 10.0549316,7.17252855 C10.5913012,6.43188429 11.4612867,6 12.4503813,6 C13.8704824,6 15.077314,6.84701163 15.3846749,8.0598616 C16.0799485,10.8020454 13.7311665,12.4491361 11.8439071,13.7723463 C11.2216249,14.2086162 10.6339826,14.620798 10.2173408,15.0260414 C10.1745256,15.067487 10.1160493,15.0908529 10.0550004,15.0909091 C9.9939421,15.090897 9.93544863,15.0675243 9.89265991,15.0260414 Z" id="Shape" fill="#FFFFFF" fill-rule="nonzero"></path>
            </g>
        </g>
    </g>
</svg>