<?xml version="1.0" encoding="UTF-8" standalone="no"?>
<svg width="356px" height="123px" viewBox="0 0 356 123" version="1.1" xmlns="http://www.w3.org/2000/svg" xmlns:xlink="http://www.w3.org/1999/xlink">
    <!-- Generator: Sketch 44.1 (41455) - http://www.bohemiancoding.com/sketch -->
    <title>group_20_slice</title>
    <desc>Created with Sketch.</desc>
    <defs>
        <linearGradient x1="55.480361%" y1="100%" x2="55.4803603%" y2="0%" id="linearGradient-1">
            <stop stop-color="#298AEE" offset="0%"></stop>
            <stop stop-color="#73E7FF" offset="100%"></stop>
        </linearGradient>
        <rect id="path-2" x="0.914526485" y="0" width="355" height="123"></rect>
        <linearGradient x1="0%" y1="0%" x2="101.999998%" y2="100.999999%" id="linearGradient-4">
            <stop stop-color="#3E95EE" offset="0%"></stop>
            <stop stop-color="#4DB7F6" offset="37.0276626%"></stop>
            <stop stop-color="#50BBF7" offset="79.2407311%"></stop>
            <stop stop-color="#3BA0F2" offset="100%"></stop>
        </linearGradient>
        <linearGradient x1="50%" y1="0%" x2="50%" y2="100%" id="linearGradient-5">
            <stop stop-color="#FBDA61" offset="0%"></stop>
            <stop stop-color="#F76B1C" offset="100%"></stop>
        </linearGradient>
        <linearGradient x1="0%" y1="0%" x2="101.999998%" y2="100.999999%" id="linearGradient-6">
            <stop stop-color="#3023AE" offset="0%"></stop>
            <stop stop-color="#C96DD8" offset="100%"></stop>
        </linearGradient>
    </defs>
    <g id="设计图" stroke="none" stroke-width="1" fill="none" fill-rule="evenodd">
        <g id="Artboard" transform="translate(1.000000, 0.000000)">
            <g id="Group-20" transform="translate(-1.000000, 0.000000)">
                <mask id="mask-3" fill="white">
                    <use xlink:href="#path-2"></use>
                </mask>
                <use id="Mask" fill="url(#linearGradient-1)" xlink:href="#path-2"></use>
                <g id="Group-25" mask="url(#mask-3)">
                    <g transform="translate(-28.000000, 18.000000)">
                        <path d="M1.51382127,49.4805495 C11.3537632,48.4351409 19.4609696,47.9124365 25.8354403,47.9124365 C125.655658,47.9124365 198.489074,124.756953 256.396382,124.756953 C284.169327,124.756953 333.060105,111.87302 403.068716,86.1051533 L403.269531,141 L0.5625,141 L1.51382127,49.4805495 Z" id="Path" fill="url(#linearGradient-4)"></path>
                        <path d="M114,111.435906 C167.958222,89.8119687 225.092408,79 285.402559,79 C318.308324,79 360.977973,87.4260885 413.411505,104.278266 L412.972656,111.435906 L170.043483,111.435906 L114,111.435906 Z" id="Path" fill="#FFFFFF" opacity="0.100000001"></path>
                        <g id="Group-13" stroke-width="1" fill="none" transform="translate(150.000000, 0.000000)">
                            <ellipse id="Oval-Copy-7" fill="#F8E81C" opacity="0.800000012" cx="133.123471" cy="92.25" rx="2.42387857" ry="2.4251269"></ellipse>
                            <ellipse id="Oval-Copy-16" fill="#FFFFFF" opacity="0.200000003" cx="1.86950612" cy="92.0634518" rx="1.11871319" ry="1.11928934"></ellipse>
                            <ellipse id="Oval-Copy-17" fill="#FFFFFF" opacity="0.200000003" cx="31.7018577" cy="99.8984772" rx="1" ry="1"></ellipse>
                            <ellipse id="Oval-Copy-10" fill="#FFFFFF" opacity="0.200000003" cx="25.5489352" cy="88.1459391" rx="1.67806978" ry="1.67893401"></ellipse>
                            <ellipse id="Oval-Copy-5" fill="#FFFFFF" opacity="0.200000003" cx="133.273901" cy="59.4911168" rx="1.67806978" ry="1.67893401"></ellipse>
                            <ellipse id="Oval-Copy-6" fill="#FFFFFF" opacity="0.200000003" cx="115.001586" cy="77.7728426" rx="1" ry="1"></ellipse>
                            <ellipse id="Oval-Copy-14" fill="url(#linearGradient-5)" transform="translate(105.796783, 2.798223) scale(-1, 1) translate(-105.796783, -2.798223) " cx="105.796783" cy="2.79822335" rx="2.79678296" ry="2.79822335"></ellipse>
                            <polygon id="Triangle" fill="url(#linearGradient-6)" transform="translate(157.936920, 62.472345) scale(-1, 1) rotate(89.000000) translate(-157.936920, -62.472345) " points="157.93692 59.6741218 160.360799 65.2705685 155.513042 65.2705685"></polygon>
                            <polygon id="Triangle" fill="#FFFFFF" opacity="0.200000003" transform="translate(162.512953, 5.603260) scale(-1, 1) rotate(78.000000) translate(-162.512953, -5.603260) " points="162.512953 4.09652454 163.818118 7.10999584 161.207787 7.10999584"></polygon>
                        </g>
                        <g id="Page-1" stroke-width="1" fill="none" transform="translate(315.000000, 53.000000)" opacity="0.200000003">
                            <g id="Group-14" transform="translate(7.000000, 0.000000)">
                                <path d="M39.1981174,4.921875 C39.1981174,2.34208333 41.3154329,0 43.9277483,0 L5.10845302,0 C2.49650671,0 0.378822148,2.34208333 0.378822148,4.921875 C0.378822148,7.50166667 2.49650671,9.84375 5.10845302,9.84375 L43.9277483,9.84375 C41.3154329,9.84375 39.1981174,7.50166667 39.1981174,4.921875" id="Fill-1" fill="#FFFFFF"></path>
                                <path d="M43.2013423,0.364583333 L5.10848993,0.364583333 C2.49654362,0.364583333 0.37885906,2.524375 0.37885906,5.10416667 C0.37885906,7.68395833 2.49654362,9.84375 5.10848993,9.84375 L43.2013423,9.84375" id="Stroke-3" stroke="#FFFFFF" stroke-width="4" stroke-linecap="round"></path>
                                <path d="M4.6776443,2.63735937 L38.0914362,2.63735937" id="Stroke-5" stroke="#FFFFFF" stroke-width="1.331" stroke-linecap="round"></path>
                                <path d="M3.69487919,4.28753646 L37.1086711,4.28753646" id="Stroke-7" stroke="#FFFFFF" stroke-width="1.331" stroke-linecap="round"></path>
                                <path d="M4.6776443,7.58792708 L38.0914362,7.58792708" id="Stroke-11" stroke="#FFFFFF" stroke-width="1.331" stroke-linecap="round"></path>
                            </g>
                            <g id="Group-15" transform="translate(0.000000, 14.000000)">
                                <path d="M4.97772148,5.5 C4.97772148,2.92020833 2.86040604,0.760416667 0.248090604,0.760416667 L39.0673859,0.760416667 C41.6793322,0.760416667 43.7970168,2.92020833 43.7970168,5.5 C43.7970168,8.07979167 41.6793322,10.2395833 39.0673859,10.2395833 L0.248090604,10.2395833 C2.86040604,10.2395833 4.97772148,8.07979167 4.97772148,5.5" id="Fill-14" fill="#FFFFFF"></path>
                                <path d="M0.738255034,0.760416667 L39.067349,0.760416667 C41.6792953,0.760416667 43.7969799,3.1025 43.7969799,5.68229167 C43.7969799,8.26208333 41.6792953,10.6041667 39.067349,10.6041667 L0.738255034,10.6041667" id="Stroke-16" stroke="#FFFFFF" stroke-width="4" stroke-linecap="round"></path>
                                <path d="M40.5462953,4.90620313 L7.13250336,4.90620313" id="Stroke-20" stroke="#FFFFFF" stroke-width="1.331" stroke-linecap="round"></path>
                                <path d="M40.5462953,6.55638021 L7.13250336,6.55638021" id="Stroke-22" stroke="#FFFFFF" stroke-width="1.331" stroke-linecap="round"></path>
                                <path d="M39.5635302,8.20659375 L6.14973826,8.20659375" id="Stroke-24" stroke="#FFFFFF" stroke-width="1.331" stroke-linecap="round"></path>
                            </g>
                            <g id="Group-16" transform="translate(0.000000, 29.000000)">
                                <path d="M49.1291779,5.26041667 C49.1291779,2.680625 51.2464933,0.520833333 53.8588087,0.520833333 L5.70317114,0.520833333 C3.09122483,0.520833333 0.973909396,2.680625 0.973909396,5.26041667 C0.973909396,7.84020833 3.09122483,10 5.70317114,10 L53.8588087,10 C51.2464933,10 49.1291779,7.84020833 49.1291779,5.26041667" id="Fill-27" fill="#FFFFFF"></path>
                                <path d="M53.261745,0.520833333 L5.7033557,0.520833333 C3.0914094,0.520833333 0.973724832,2.680625 0.973724832,5.26041667 C0.973724832,7.84020833 3.0914094,10 5.7033557,10 L53.261745,10" id="Stroke-29" stroke="#FFFFFF" stroke-width="4" stroke-linecap="round"></path>
                                <path d="M5.27243624,2.87465625 L48.0225705,2.87465625" id="Stroke-31" stroke="#FFFFFF" stroke-width="1.331" stroke-linecap="round"></path>
                                <path d="M4.28967114,4.52483333 L47.0398054,4.52483333" id="Stroke-33" stroke="#FFFFFF" stroke-width="1.331" stroke-linecap="round"></path>
                                <path d="M4.28967114,6.17504687 L47.0398054,6.17504687" id="Stroke-35" stroke="#FFFFFF" stroke-width="1.331" stroke-linecap="round"></path>
                            </g>
                        </g>
                    </g>
                </g>
            </g>
        </g>
    </g>
</svg>