<?xml version="1.0" encoding="UTF-8" standalone="no"?>
<svg width="356px" height="123px" viewBox="0 0 356 123" version="1.1" xmlns="http://www.w3.org/2000/svg" xmlns:xlink="http://www.w3.org/1999/xlink">
    <!-- Generator: Sketch 44.1 (41455) - http://www.bohemiancoding.com/sketch -->
    <title>group_21_slice</title>
    <desc>Created with Sketch.</desc>
    <defs>
        <linearGradient x1="55.480361%" y1="100%" x2="55.4803603%" y2="0%" id="linearGradient-1">
            <stop stop-color="#7656C4" offset="0%"></stop>
            <stop stop-color="#DB8BED" offset="100%"></stop>
        </linearGradient>
        <rect id="path-2" x="0.914526485" y="0" width="355" height="123"></rect>
        <linearGradient x1="0%" y1="0%" x2="101.999998%" y2="100.999999%" id="linearGradient-4">
            <stop stop-color="#8E69EC" offset="0%"></stop>
            <stop stop-color="#8253C8" offset="37.0276626%"></stop>
            <stop stop-color="#A66FD7" offset="79.2407311%"></stop>
            <stop stop-color="#794DC5" offset="100%"></stop>
        </linearGradient>
        <linearGradient x1="50%" y1="0%" x2="50%" y2="100%" id="linearGradient-5">
            <stop stop-color="#FBDA61" offset="0%"></stop>
            <stop stop-color="#F76B1C" offset="100%"></stop>
        </linearGradient>
        <linearGradient x1="0%" y1="0%" x2="101.999998%" y2="100.999999%" id="linearGradient-6">
            <stop stop-color="#3023AE" offset="0%"></stop>
            <stop stop-color="#C96DD8" offset="100%"></stop>
        </linearGradient>
        <polygon id="path-7" points="71.6252148 10.6496437 71.6252148 11.2121437 16.9165867 11.2121437 16.9165867 10.6496437 71.6252148 10.6496437"></polygon>
    </defs>
    <g id="设计图" stroke="none" stroke-width="1" fill="none" fill-rule="evenodd">
        <g id="Artboard" transform="translate(1.000000, 0.000000)">
            <g id="Group-21" transform="translate(-1.000000, 0.000000)">
                <mask id="mask-3" fill="white">
                    <use xlink:href="#path-2"></use>
                </mask>
                <use id="Mask" fill="url(#linearGradient-1)" xlink:href="#path-2"></use>
                <g id="Group-25" mask="url(#mask-3)">
                    <g transform="translate(-28.000000, 18.000000)">
                        <path d="M1.51382127,48.4805495 C11.3537632,47.4351409 19.4609696,46.9124365 25.8354403,46.9124365 C125.655658,46.9124365 198.489074,123.756953 256.396382,123.756953 C284.169327,123.756953 333.060105,110.87302 403.068716,85.1051533 L403.269531,140 L0.5625,140 L1.51382127,48.4805495 Z" id="Path" fill="url(#linearGradient-4)"></path>
                        <path d="M114,110.435906 C167.958222,88.8119687 225.092408,78 285.402559,78 C318.308324,78 360.977973,86.4260885 413.411505,103.278266 L412.972656,110.435906 L170.043483,110.435906 L114,110.435906 Z" id="Path" fill="#FFFFFF" opacity="0.100000001"></path>
                        <g id="Group-13" stroke-width="1" fill="none" transform="translate(150.000000, 0.000000)">
                            <ellipse id="Oval-Copy-7" fill="#F8E81C" opacity="0.800000012" cx="133.123471" cy="92.25" rx="2.42387857" ry="2.4251269"></ellipse>
                            <ellipse id="Oval-Copy-16" fill="#FFFFFF" opacity="0.200000003" cx="1.86950612" cy="92.0634518" rx="1.11871319" ry="1.11928934"></ellipse>
                            <ellipse id="Oval-Copy-17" fill="#FFFFFF" opacity="0.200000003" cx="31.7018577" cy="99.8984772" rx="1" ry="1"></ellipse>
                            <ellipse id="Oval-Copy-10" fill="#FFFFFF" opacity="0.200000003" cx="25.5489352" cy="88.1459391" rx="1.67806978" ry="1.67893401"></ellipse>
                            <ellipse id="Oval-Copy-5" fill="#FFFFFF" opacity="0.200000003" cx="133.273901" cy="59.4911168" rx="1.67806978" ry="1.67893401"></ellipse>
                            <ellipse id="Oval-Copy-6" fill="#FFFFFF" opacity="0.200000003" cx="115.001586" cy="77.7728426" rx="1" ry="1"></ellipse>
                            <ellipse id="Oval-Copy-14" fill="url(#linearGradient-5)" transform="translate(105.796783, 2.798223) scale(-1, 1) translate(-105.796783, -2.798223) " cx="105.796783" cy="2.79822335" rx="2.79678296" ry="2.79822335"></ellipse>
                            <polygon id="Triangle" fill="url(#linearGradient-6)" transform="translate(157.936920, 62.472345) scale(-1, 1) rotate(89.000000) translate(-157.936920, -62.472345) " points="157.93692 59.6741218 160.360799 65.2705685 155.513042 65.2705685"></polygon>
                            <polygon id="Triangle" fill="#FFFFFF" opacity="0.200000003" transform="translate(162.512953, 5.603260) scale(-1, 1) rotate(78.000000) translate(-162.512953, -5.603260) " points="162.512953 4.09652454 163.818118 7.10999584 161.207787 7.10999584"></polygon>
                        </g>
                    </g>
                </g>
                <g id="Group-17" opacity="0.300000012" mask="url(#mask-3)">
                    <g transform="translate(232.000000, 93.000000)">
                        <polygon id="x-" stroke="none" fill="#FFFFFF" fill-rule="evenodd" points="0.314467593 11.7674736 1.79032118 9.76439136 0.357349537 7.88984912 1.19354745 7.88984912 2.32634549 9.3823418 3.35193866 7.88984912 4.03804977 7.88984912 2.69441551 9.85722583 4.15597512 11.7674736 3.3197772 11.7674736 2.15124421 10.2321343 1.02201968 11.7674736"></polygon>
                        <polygon id="1" stroke="none" fill="#FFFFFF" fill-rule="evenodd" points="5.58161483 9.54863503 5.58161483 9.24055313 6.19828578 9.24055313 6.19828578 6.809204 5.58161483 6.96324496 5.58161483 6.64683651 6.61078864 6.39079547 6.61078864 9.24055313 7.22745959 9.24055313 7.22745959 9.54863503"></polygon>
                        <path d="M10.2375158,10.5784783 L10.2375158,10.0500359 L14.4685343,10.0500359 L14.4685343,10.5784783 L10.2375158,10.5784783 Z M10.2375158,9.25737231 L10.2375158,8.72892993 L14.4685343,8.72892993 L14.4685343,9.25737231 L10.2375158,9.25737231 Z" id="-=-" stroke="none" fill="#FFFFFF" fill-rule="evenodd"></path>
                        <path d="M37.5008216,17.6613486 L37.5008216,17.0436423 C37.705703,16.5651854 38.1202244,16.0438893 38.744398,15.4797385 L39.148203,15.1191123 C39.6675536,14.6501769 39.927225,14.184819 39.927225,13.7230247 C39.927225,13.4278572 39.8384841,13.1957733 39.6609996,13.0267661 C39.4835151,12.8577589 39.2399242,12.7732566 38.9302198,12.7732566 C38.5633391,12.7732566 38.1309505,12.9148873 37.6330409,13.1981528 L37.6330409,12.576876 C38.1023624,12.3555004 38.5681033,12.2448142 39.0302776,12.2448142 C39.5258048,12.2448142 39.92365,12.3781137 40.2238251,12.6447166 C40.5240002,12.9113194 40.6740855,13.264801 40.6740855,13.7051719 C40.6740855,14.0217628 40.5984473,14.3026438 40.4471686,14.5478232 C40.2958898,14.7930027 40.0141821,15.0905461 39.6020369,15.4404624 L39.3304513,15.6725486 C38.7658362,16.1510056 38.4394602,16.6080322 38.3513135,17.0436423 L40.649071,17.0436423 L40.649071,17.6613486 L37.5008216,17.6613486 Z M46.5417649,17.1686118 C46.1200903,17.5566142 45.7139071,17.7506125 45.323203,17.7506125 C45.0015868,17.7506125 44.7347685,17.6500429 44.52274,17.4489005 C44.3107116,17.2477581 44.2046989,16.9936561 44.2046989,16.6865867 C44.2046989,16.2628785 44.3827763,15.937366 44.7389365,15.7100394 C45.0950966,15.4827129 45.6055058,15.3690513 46.2701793,15.3690513 L46.4381335,15.3690513 L46.4381335,14.9013083 C46.4381335,14.451416 46.2070498,14.2264731 45.7448754,14.2264731 C45.3732301,14.2264731 44.9718114,14.3407298 44.5406075,14.5692466 L44.5406075,13.9872458 C45.0146936,13.7944348 45.4589937,13.6980308 45.8735213,13.6980308 C46.3071075,13.6980308 46.6269322,13.795625 46.8330048,13.9908164 C47.0390774,14.1860078 47.1421121,14.4895021 47.1421121,14.9013083 L47.1421121,16.6580222 C47.1421121,17.0603069 47.2659921,17.2614463 47.5137556,17.2614463 C47.5447261,17.2614463 47.5899899,17.2566856 47.6495485,17.2471641 L47.6995774,17.6363547 C47.5399605,17.712527 47.3636698,17.7506125 47.1707001,17.7506125 C46.8419369,17.7506125 46.6322939,17.5566142 46.5417649,17.1686118 Z M46.4381335,16.7865623 L46.4381335,15.7832358 L46.2022828,15.7760947 C45.8163434,15.7760947 45.5042613,15.8492904 45.2660271,15.995684 C45.0277928,16.1420775 44.9086775,16.3342906 44.9086775,16.5723289 C44.9086775,16.7413361 44.9682352,16.8841569 45.0873523,17.0007957 C45.2064694,17.1174344 45.3517901,17.1757529 45.5233187,17.1757529 C45.8163468,17.1757529 46.121282,17.046024 46.4381335,16.7865623 Z" id="2-a" stroke="none" fill="#FFFFFF" fill-rule="evenodd"></path>
                        <path d="M18.1660003,4.84389404 L18.1660003,4.31545166 L21.3392642,4.31545166 L21.3392642,4.84389404 L18.1660003,4.84389404 Z M24.8913186,6.73628906 L24.8913186,1.05553345 L25.5952972,1.05553345 L25.5952972,3.54421143 C25.8835606,3.0014841 26.3159492,2.73012451 26.892476,2.73012451 C27.359415,2.73012451 27.7268858,2.90031934 27.9948993,3.24071411 C28.2629128,3.58110888 28.3969175,4.04646677 28.3969175,4.63680176 C28.3969175,5.27950517 28.2450455,5.79782579 27.9412969,6.19177917 C27.6375482,6.58573256 27.2379163,6.7827063 26.7423892,6.7827063 C26.2825971,6.7827063 25.9002369,6.6065606 25.5952972,6.25426392 L25.5095333,6.73628906 L24.8913186,6.73628906 Z M25.5952972,5.76866821 C25.9574132,6.0924003 26.3028476,6.25426392 26.6316108,6.25426392 C27.308196,6.25426392 27.6464835,5.73891873 27.6464835,4.70821289 C27.6464835,3.79890659 27.3463129,3.34426025 26.7459627,3.34426025 C26.3528762,3.34426025 25.9693249,3.55730134 25.5952972,3.98338989 L25.5952972,5.76866821 Z M33.7535871,6.69344238 L33.7535871,4.84389404 L31.9025165,4.84389404 L31.9025165,4.31545166 L33.7535871,4.31545166 L33.7535871,2.46590332 L34.2824644,2.46590332 L34.2824644,4.31545166 L36.133535,4.31545166 L36.133535,4.84389404 L34.2824644,4.84389404 L34.2824644,6.69344238 L33.7535871,6.69344238 Z M46.8933296,6.73628906 L46.8933296,1.05553345 L47.5973081,1.05553345 L47.5973081,3.54421143 C47.8855715,3.0014841 48.3179602,2.73012451 48.894487,2.73012451 C49.361426,2.73012451 49.7288968,2.90031934 49.9969103,3.24071411 C50.2649238,3.58110888 50.3989285,4.04646677 50.3989285,4.63680176 C50.3989285,5.27950517 50.2470565,5.79782579 49.9433079,6.19177917 C49.6395592,6.58573256 49.2399273,6.7827063 48.7444002,6.7827063 C48.2846081,6.7827063 47.9022479,6.6065606 47.5973081,6.25426392 L47.5115443,6.73628906 L46.8933296,6.73628906 Z M47.5973081,5.76866821 C47.9594242,6.0924003 48.3048586,6.25426392 48.6336218,6.25426392 C49.310207,6.25426392 49.6484945,5.73891873 49.6484945,4.70821289 C49.6484945,3.79890659 49.3483239,3.34426025 48.7479737,3.34426025 C48.3548872,3.34426025 47.9713359,3.55730134 47.5973081,3.98338989 L47.5973081,5.76866821 Z" id="--b-+----b-" stroke="none" fill="#FFFFFF" fill-rule="evenodd"></path>
                        <path d="M29.6282432,3.9375 L29.6282432,3.57737723 C29.7476891,3.29843681 29.989355,2.99452121 30.3532482,2.66562131 L30.5886665,2.45537622 C30.8914479,2.18198685 31.0428364,1.9106832 31.0428364,1.64145712 C31.0428364,1.46937448 30.9911004,1.33406958 30.8876269,1.23553839 C30.7841535,1.1370072 30.64214,1.08774234 30.4615823,1.08774234 C30.2476909,1.08774234 29.9956083,1.17031302 29.7053271,1.33545685 L29.7053271,0.973252441 C29.9789414,0.844190456 30.2504684,0.779660431 30.5199161,0.779660431 C30.8088084,0.779660431 31.0407521,0.857374009 31.2157542,1.0128035 C31.3907563,1.16823299 31.478256,1.37431274 31.478256,1.63104895 C31.478256,1.81562147 31.434159,1.97937508 31.3459635,2.1223147 C31.257768,2.26525432 31.0935324,2.43872212 30.8532517,2.64272333 L30.6949173,2.77802957 C30.3657467,3.05696999 30.1754695,3.32341655 30.12408,3.57737723 L31.4636726,3.57737723 L31.4636726,3.9375 L29.6282432,3.9375 Z" id="2" stroke="none" fill="#FFFFFF" fill-rule="evenodd"></path>
                        <path d="M52.4080431,4.84389404 L52.4080431,4.31545166 L55.5813069,4.31545166 L55.5813069,4.84389404 L52.4080431,4.84389404 Z M61.1845477,6.69344238 L61.1845477,5.19737915 L58.8045998,5.19737915 L58.8045998,4.66536621 L61.1845477,1.40901855 L61.8456443,1.40901855 L61.8456443,4.62251953 L62.5531964,4.62251953 L62.5531964,5.19737915 L61.8456443,5.19737915 L61.8456443,6.69344238 L61.1845477,6.69344238 Z M59.4942844,4.62251953 L61.2310031,4.62251953 L61.2310031,2.27309326 L59.4942844,4.62251953 Z M68.0778203,6.20070557 C67.6561457,6.58870799 67.2499624,6.7827063 66.8592583,6.7827063 C66.5376421,6.7827063 66.2708238,6.68213663 66.0587954,6.48099426 C65.8467669,6.2798519 65.7407543,6.02574983 65.7407543,5.71868042 C65.7407543,5.29497225 65.9188317,4.96945975 66.2749918,4.74213318 C66.631152,4.5148066 67.1415611,4.40114502 67.8062346,4.40114502 L67.9741889,4.40114502 L67.9741889,3.9334021 C67.9741889,3.48350971 67.7431052,3.25856689 67.2809308,3.25856689 C66.9092854,3.25856689 66.5078668,3.37282356 66.0766628,3.60134033 L66.0766628,3.0193396 C66.5507489,2.82652858 66.9950491,2.73012451 67.4095766,2.73012451 C67.8431629,2.73012451 68.1629875,2.82771875 68.3690601,3.02291016 C68.5751327,3.21810156 68.6781675,3.52159584 68.6781675,3.9334021 L68.6781675,5.69011597 C68.6781675,6.09240069 68.8020474,6.29354004 69.049811,6.29354004 C69.0807814,6.29354004 69.1260453,6.28877934 69.1856038,6.27925781 L69.2356328,6.66844849 C69.0760158,6.74462074 68.8997252,6.7827063 68.7067554,6.7827063 C68.3779922,6.7827063 68.1683493,6.58870799 68.0778203,6.20070557 Z M67.9741889,5.81865601 L67.9741889,4.81532959 L67.7383382,4.80818848 C67.3523988,4.80818848 67.0403166,4.88138416 66.8020824,5.02777771 C66.5638482,5.17417126 66.4447329,5.36638431 66.4447329,5.60442261 C66.4447329,5.7734298 66.5042905,5.91625064 66.6234076,6.0328894 C66.7425247,6.14952817 66.8878454,6.20784668 67.0593741,6.20784668 C67.3524022,6.20784668 67.6573374,6.07811775 67.9741889,5.81865601 Z M73.9490731,6.7827063 C73.4249579,6.7827063 72.990187,6.58870799 72.6447473,6.20070557 C72.2993077,5.81270314 72.1265905,5.32354177 72.1265905,4.73320679 C72.1265905,4.10240529 72.297521,3.61086358 72.6393871,3.25856689 C72.9812532,2.90627021 73.4583101,2.73012451 74.070572,2.73012451 C74.3731294,2.73012451 74.711417,2.77178059 75.0854447,2.85509399 L75.0854447,3.44423584 C74.6875935,3.32759707 74.3635999,3.26927856 74.1134539,3.26927856 C73.7537203,3.26927856 73.4648656,3.40436327 73.2468813,3.67453674 C73.028897,3.94471021 72.9199065,4.30473774 72.9199065,4.75463013 C72.9199065,5.19024022 73.0318749,5.54253161 73.255815,5.81151489 C73.4797552,6.08049817 73.7727789,6.21498779 74.1348949,6.21498779 C74.4565111,6.21498779 74.7876517,6.13286581 75.1283266,5.96861938 L75.1283266,6.57561401 C74.6732993,6.71367623 74.2802187,6.7827063 73.9490731,6.7827063 Z" id="--4-a-c" stroke="none" fill="#FFFFFF" fill-rule="evenodd"></path>
                        <polygon id="Stroke-3" stroke="none" fill="#FFFFFF" fill-rule="nonzero" points="75.9491644 0.4699125 75.9491644 0.065475 43.9446246 0.065475 40.0502479 7.8467405 38.3464005 3.30619939 37.9673951 3.44818811 39.9971181 8.857147 44.1947709 0.4699125"></polygon>
                        <mask id="mask-8" fill="white">
                            <use xlink:href="#path-7"></use>
                        </mask>
                        <g id="Clip-6" stroke="none" fill="none"></g>
                        <polygon id="Stroke-5" stroke="none" fill="#FFFFFF" fill-rule="nonzero" mask="url(#mask-8)" points="16.9165867 10.8518625 71.6253274 10.8518625 71.6253274 10.447425 16.9165867 10.447425"></polygon>
                    </g>
                </g>
                <g id="Page-1" mask="url(#mask-3)" opacity="0.200000003">
                    <g transform="translate(312.000000, 82.000000)">
                        <path d="M12.1932,12.5107 C16.8482,4.4487 23.0072,-0.7093 25.9492,0.9897 C28.8922,2.6887 27.5042,10.6017 22.8502,18.6637 C18.1952,26.7257 12.0362,31.8837 9.0932,30.1847 C6.1512,28.4857 7.5382,20.5727 12.1932,12.5107 Z" id="Stroke-1" stroke="#FFFFFF" stroke-width="1.331" fill="none"></path>
                        <path d="M17.5216,9.4343 C26.8306,9.4343 34.3776,12.1893 34.3776,15.5873 C34.3776,18.9853 26.8306,21.7393 17.5216,21.7393 C8.2126,21.7393 0.6656,18.9853 0.6656,15.5873 C0.6656,12.1893 8.2126,9.4343 17.5216,9.4343 Z" id="Stroke-3" stroke="#FFFFFF" stroke-width="1.331" fill="none"></path>
                        <path d="M22.85,12.5107 C27.505,20.5727 28.892,28.4857 25.95,30.1847 C23.007,31.8837 16.848,26.7257 12.193,18.6637 C7.538,10.6017 6.151,2.6887 9.094,0.9897 C12.036,-0.7093 18.195,4.4487 22.85,12.5107 Z" id="Stroke-5" stroke="#FFFFFF" stroke-width="1.331" fill="none"></path>
                        <path d="M18.9037,15.587 C18.9037,16.35 18.2847,16.969 17.5217,16.969 C16.7577,16.969 16.1397,16.35 16.1397,15.587 C16.1397,14.824 16.7577,14.205 17.5217,14.205 C18.2847,14.205 18.9037,14.824 18.9037,15.587" id="Fill-7" stroke="none" fill="#FFFFFF" fill-rule="evenodd"></path>
                    </g>
                </g>
                <g id="Page-1" mask="url(#mask-3)" opacity="0.200000003">
                    <g transform="translate(308.000000, 62.000000)">
                        <path d="M3.13539429,3.22856774 C4.33239429,1.14805161 5.91613714,-0.183045161 6.67265143,0.255406452 C7.42942286,0.693858065 7.07250857,2.73592258 5.87576571,4.81643871 C4.67876571,6.89695484 3.09502286,8.22805161 2.33825143,7.7896 C1.58173714,7.35114839 1.93839429,5.30908387 3.13539429,3.22856774 Z" id="Stroke-1" stroke="#FFFFFF" stroke-width="1.331" fill="none"></path>
                        <path d="M4.50555429,2.43465806 C6.89929714,2.43465806 8.83995429,3.14562581 8.83995429,4.02252903 C8.83995429,4.89943226 6.89929714,5.61014194 4.50555429,5.61014194 C2.11181143,5.61014194 0.171154286,4.89943226 0.171154286,4.02252903 C0.171154286,3.14562581 2.11181143,2.43465806 4.50555429,2.43465806 Z" id="Stroke-3" stroke="#FFFFFF" stroke-width="1.331" fill="none"></path>
                        <path d="M5.87571429,3.22856774 C7.07271429,5.30908387 7.42937143,7.35114839 6.67285714,7.7896 C5.91608571,8.22805161 4.33234286,6.89695484 3.13534286,4.81643871 C1.93834286,2.73592258 1.58168571,0.693858065 2.33845714,0.255406452 C3.09497143,-0.183045161 4.67871429,1.14805161 5.87571429,3.22856774 Z" id="Stroke-5" stroke="#FFFFFF" stroke-width="1.331" fill="none"></path>
                        <path d="M4.86095143,4.02245161 C4.86095143,4.21935484 4.70178,4.37909677 4.50558,4.37909677 C4.30912286,4.37909677 4.15020857,4.21935484 4.15020857,4.02245161 C4.15020857,3.82554839 4.30912286,3.66580645 4.50558,3.66580645 C4.70178,3.66580645 4.86095143,3.82554839 4.86095143,4.02245161" id="Fill-7" stroke="none" fill="#FFFFFF" fill-rule="evenodd"></path>
                    </g>
                </g>
            </g>
        </g>
    </g>
</svg>