<?xml version="1.0" encoding="UTF-8" standalone="no"?>
<svg width="356px" height="123px" viewBox="0 0 356 123" version="1.1" xmlns="http://www.w3.org/2000/svg" xmlns:xlink="http://www.w3.org/1999/xlink">
    <!-- Generator: Sketch 44.1 (41455) - http://www.bohemiancoding.com/sketch -->
    <title>group_22_slice</title>
    <desc>Created with Sketch.</desc>
    <defs>
        <linearGradient x1="55.480361%" y1="100%" x2="55.4803603%" y2="0%" id="linearGradient-1">
            <stop stop-color="#FFA949" offset="0%"></stop>
            <stop stop-color="#FFC772" offset="100%"></stop>
        </linearGradient>
        <rect id="path-2" x="0.914526485" y="0" width="355" height="123"></rect>
        <linearGradient x1="0%" y1="0%" x2="101.999998%" y2="100.999999%" id="linearGradient-4">
            <stop stop-color="#F8A332" offset="0%"></stop>
            <stop stop-color="#F8AD3E" offset="37.0276626%"></stop>
            <stop stop-color="#FDB94E" offset="79.2407311%"></stop>
            <stop stop-color="#F9AC39" offset="100%"></stop>
        </linearGradient>
        <linearGradient x1="50%" y1="0%" x2="50%" y2="100%" id="linearGradient-5">
            <stop stop-color="#FBDA61" offset="0%"></stop>
            <stop stop-color="#F76B1C" offset="100%"></stop>
        </linearGradient>
        <linearGradient x1="0%" y1="0%" x2="101.999998%" y2="100.999999%" id="linearGradient-6">
            <stop stop-color="#3023AE" offset="0%"></stop>
            <stop stop-color="#C96DD8" offset="100%"></stop>
        </linearGradient>
    </defs>
    <g id="设计图" stroke="none" stroke-width="1" fill="none" fill-rule="evenodd">
        <g id="Artboard" transform="translate(-10.000000, -466.000000)">
            <g id="Group-22" transform="translate(10.000000, 466.000000)">
                <mask id="mask-3" fill="white">
                    <use xlink:href="#path-2"></use>
                </mask>
                <use id="Mask" fill="url(#linearGradient-1)" xlink:href="#path-2"></use>
                <g id="Group-25" mask="url(#mask-3)">
                    <g transform="translate(-28.000000, 18.000000)">
                        <path d="M1.51382127,49.4805495 C11.3537632,48.4351409 19.4609696,47.9124365 25.8354403,47.9124365 C125.655658,47.9124365 198.489074,124.756953 256.396382,124.756953 C284.169327,124.756953 333.060105,111.87302 403.068716,86.1051533 L403.269531,141 L0.5625,141 L1.51382127,49.4805495 Z" id="Path" fill="url(#linearGradient-4)"></path>
                        <path d="M114,111.435906 C167.958222,89.8119687 225.092408,79 285.402559,79 C318.308324,79 360.977973,87.4260885 413.411505,104.278266 L412.972656,111.435906 L170.043483,111.435906 L114,111.435906 Z" id="Path" fill="#FFFFFF" opacity="0.100000001"></path>
                        <g id="Group-13" stroke-width="1" fill="none" transform="translate(150.000000, 0.000000)">
                            <ellipse id="Oval-Copy-7" fill="#F8E81C" opacity="0.800000012" cx="133.123471" cy="92.25" rx="2.42387857" ry="2.4251269"></ellipse>
                            <ellipse id="Oval-Copy-16" fill="#FFFFFF" opacity="0.200000003" cx="1.86950612" cy="92.0634518" rx="1.11871319" ry="1.11928934"></ellipse>
                            <ellipse id="Oval-Copy-17" fill="#FFFFFF" opacity="0.200000003" cx="31.7018577" cy="99.8984772" rx="1" ry="1"></ellipse>
                            <ellipse id="Oval-Copy-10" fill="#FFFFFF" opacity="0.200000003" cx="25.5489352" cy="88.1459391" rx="1.67806978" ry="1.67893401"></ellipse>
                            <ellipse id="Oval-Copy-5" fill="#FFFFFF" opacity="0.200000003" cx="133.273901" cy="59.4911168" rx="1.67806978" ry="1.67893401"></ellipse>
                            <ellipse id="Oval-Copy-6" fill="#FFFFFF" opacity="0.200000003" cx="115.001586" cy="77.7728426" rx="1" ry="1"></ellipse>
                            <ellipse id="Oval-Copy-14" fill="url(#linearGradient-5)" transform="translate(105.796783, 2.798223) scale(-1, 1) translate(-105.796783, -2.798223) " cx="105.796783" cy="2.79822335" rx="2.79678296" ry="2.79822335"></ellipse>
                            <polygon id="Triangle" fill="url(#linearGradient-6)" transform="translate(157.936920, 62.472345) scale(-1, 1) rotate(89.000000) translate(-157.936920, -62.472345) " points="157.93692 59.6741218 160.360799 65.2705685 155.513042 65.2705685"></polygon>
                            <polygon id="Triangle" fill="#FFFFFF" opacity="0.200000003" transform="translate(162.512953, 5.603260) scale(-1, 1) rotate(78.000000) translate(-162.512953, -5.603260) " points="162.512953 4.09652454 163.818118 7.10999584 161.207787 7.10999584"></polygon>
                        </g>
                        <g id="Group-4" stroke-width="1" fill="none" transform="translate(356.543007, 86.596038) rotate(5.000000) translate(-356.543007, -86.596038) translate(313.043007, 52.596038)" opacity="0.300000012">
                            <g id="Group-12" transform="translate(0.000000, 0.000000)" fill="#FFFFFF">
                                <polygon id="Fill-1" transform="translate(47.694060, 33.960321) rotate(-45.000000) translate(-47.694060, -33.960321) " points="30.7423527 5.81996377 58.616885 64.9401225 64.6457682 62.0999241 36.7712359 2.98051932"></polygon>
                                <polygon id="Fill-2" transform="translate(48.117678, 32.386328) rotate(-45.000000) translate(-48.117678, -32.386328) " points="63.5621644 61.2361692 60.5477229 62.6558914 32.6731906 3.53648665 35.6876321 2.11676443"></polygon>
                                <polygon id="Fill-4" transform="translate(10.200836, 19.255570) rotate(-45.000000) translate(-10.200836, -19.255570) " points="8.86108445 27.2902325 15.2271687 24.2917008 5.17450386 11.2209071"></polygon>
                                <polygon id="Fill-5" transform="translate(5.664033, 18.307136) rotate(-45.000000) translate(-5.664033, -18.307136) " points="4.99415698 22.3246556 8.17682191 20.8250128 3.15124387 14.289616"></polygon>
                            </g>
                            <g id="Group-11" transform="translate(16.904629, 4.000000)" fill="#FFFFFF">
                                <polygon id="Fill-6" transform="translate(37.326638, 26.534409) rotate(-45.000000) translate(-37.326638, -26.534409) " points="47.9533749 51.748992 42.64491 53.3730396 26.6999021 1.31982533 32.0083669 -0.304222285"></polygon>
                                <polygon id="Fill-7" transform="translate(38.091389, 25.303474) rotate(-45.000000) translate(-38.091389, -25.303474) " points="47.3908205 50.9240689 44.7369653 51.7360927 28.7919573 -0.317121596 31.4458125 -1.12914541"></polygon>
                                <polygon id="Fill-9" transform="translate(8.192676, 9.319431) rotate(-45.000000) translate(-8.192676, -9.319431) " points="5.95372166 16.1624466 4.82670071 2.47641487 11.5586518 14.4471688"></polygon>
                                <polygon id="Fill-10" transform="translate(5.587432, 8.616137) rotate(-45.000000) translate(-5.587432, -8.616137) " points="7.27041936 11.1803835 3.90444379 5.19462956 4.46795427 12.0376454"></polygon>
                            </g>
                            <g id="Group-9" transform="translate(32.352034, 0.147103)" fill="#FFFFFF">
                                <polygon id="Fill-11" transform="translate(27.352311, 36.503808) rotate(-45.000000) translate(-27.352311, -36.503808) " points="22.6099967 63.778233 17.2019557 62.2612489 32.0946248 9.2293838 37.5026658 10.7463679"></polygon>
                                <polygon id="Fill-14" transform="translate(9.175414, 7.224362) rotate(-45.000000) translate(-9.175414, -7.224362) " points="5.91240889 12.5575565 11.6229501 14.159739 12.4384184 0.288985056"></polygon>
                                <polygon id="Fill-15" transform="translate(8.653068, 4.608108) rotate(-45.000000) translate(-8.653068, -4.608108) " points="7.02175414 7.27489404 9.87702476 8.07560833 10.2843817 1.14060833"></polygon>
                            </g>
                        </g>
                    </g>
                </g>
            </g>
        </g>
    </g>
</svg>